<svg xmlns="http://www.w3.org/2000/svg" xmlns:xlink="http://www.w3.org/1999/xlink" xmlns:lucid="lucid" width="1081.32" height="1000.06"><g transform="translate(-469.34058823529415 -139.94246189651355)" lucid:page-tab-id="0_0"><path d="M757.65 164.94c0-2.76 2.24-5 5-5h494.7c2.76 0 5 2.24 5 5v39.15c0 2.75-2.24 5-5 5h-494.7c-2.76 0-5-2.25-5-5z" stroke="#333" stroke-width="4" fill="#fff"/><use xlink:href="#a" transform="matrix(1,0,0,1,769.6470588235293,171.94246189651355) translate(60.48888888888888 19.04722222222222)"/><use xlink:href="#b" transform="matrix(1,0,0,1,769.6470588235293,171.94246189651355) translate(217.64444444444445 19.04722222222222)"/><use xlink:href="#c" transform="matrix(1,0,0,1,769.6470588235293,171.94246189651355) translate(270.73333333333335 19.04722222222222)"/><use xlink:href="#d" transform="matrix(1,0,0,1,769.6470588235293,171.94246189651355) translate(362.1333333333333 19.04722222222222)"/><path d="M757.65 414.9c0-2.76 2.24-5 5-5h230.88c2.76 0 5 2.24 5 5V449c0 2.75-2.24 5-5 5H762.65c-2.76 0-5-2.25-5-5z" stroke="#333" stroke-width="4" fill="#fff"/><use xlink:href="#e" transform="matrix(1,0,0,1,769.6470588235293,421.9035915208125) translate(56.03333333333333 17.42222222222222)"/><use xlink:href="#f" transform="matrix(1,0,0,1,769.6470588235293,421.9035915208125) translate(117.76666666666665 17.42222222222222)"/><path d="M757.65 668.55c0-2.76 2.24-5 5-5h494.7c2.76 0 5 2.24 5 5v44.36c0 2.77-2.24 5-5 5h-494.7c-2.76 0-5-2.23-5-5z" stroke="#333" stroke-width="4" fill="#fff"/><use xlink:href="#g" transform="matrix(1,0,0,1,769.6470588235294,675.5545870981762) translate(150.3 21.29722222222222)"/><use xlink:href="#h" transform="matrix(1,0,0,1,769.6470588235294,675.5545870981762) translate(231.9 21.29722222222222)"/><use xlink:href="#i" transform="matrix(1,0,0,1,769.6470588235294,675.5545870981762) translate(264.0111111111111 21.29722222222222)"/><path d="M757.65 795.38c0-2.76 2.24-5 5-5h494.7c2.76 0 5 2.24 5 5v44.35c0 2.77-2.24 5-5 5h-494.7c-2.76 0-5-2.23-5-5z" stroke="#333" stroke-width="4" fill="#fff"/><use xlink:href="#j" transform="matrix(1,0,0,1,769.6470588235294,802.380084886858) translate(141.44444444444446 21.29722222222222)"/><use xlink:href="#k" transform="matrix(1,0,0,1,769.6470588235294,802.380084886858) translate(233.3777777777778 21.29722222222222)"/><path d="M880.1 385.17h-4v-33.53h4zm131.9-81.4l-1.03 3.8-2.9 2.9-3.8 1.02H884.35l-2.25.6-1.4 1.4-.6 2.26v18.1h-4v-18.63l1.02-3.8 2.9-2.9 3.8-1.04h119.9l2.27-.62 1.4-1.4.6-2.25v-38.58h4zm0-59.12h-4V213.1h4z" fill="#333"/><path d="M1012 213.14h-4v-2.05h4zM878.1 401.43l-4.65-14.26h9.27z" fill="#333"/><path d="M878.1 407.9l-7.4-22.73h14.78zm-1.9-18.73l1.9 5.8 1.87-5.8z" fill="#333"/><use xlink:href="#l" transform="matrix(1,0,0,1,802.5949019607842,333.8608808244171) translate(0 13.937777777777779)"/><path d="M757.65 537.8c0-2.76 2.24-5 5-5h230.88c2.76 0 5 2.24 5 5v34.1c0 2.75-2.24 5-5 5H762.65c-2.76 0-5-2.25-5-5z" stroke="#333" stroke-width="4" fill="#fff"/><use xlink:href="#m" transform="matrix(1,0,0,1,769.6470588235293,544.8035381874638) translate(99.23333333333333 17.42222222222222)"/><path d="M642.94 554.85c0 5-5.13 9.06-11.47 9.06-6.33 0-11.47-4.05-11.47-9.05 0-5 5.14-9.06 11.47-9.06 6.34 0 11.47 4.04 11.47 9.05zm-22.94 0h22.94m-11.47-9.06v18.1M757.65 989.12c0-2.77 2.24-5 5-5h494.7c2.76 0 5 2.23 5 5V1115c0 2.76-2.24 5-5 5h-494.7c-2.76 0-5-2.24-5-5z" stroke="#333" stroke-width="4" fill="#fff"/><use xlink:href="#n" transform="matrix(1,0,0,1,769.6470588235294,996.115538083555) translate(171.98888888888888 109.5704462222222)"/><use xlink:href="#o" transform="matrix(1,0,0,1,769.6470588235294,996.115538083555) translate(244.8111111111111 109.5704462222222)"/><path d="M780.6 1007.23c0-2.76 2.23-5 5-5h127.64c2.76 0 5 2.24 5 5v60.06c0 2.75-2.24 5-5 5H785.6c-2.77 0-5-2.25-5-5z" stroke="#333" stroke-width="4" fill="#fff"/><use xlink:href="#p" transform="matrix(1,0,0,1,792.5882352941177,1014.233466339081) translate(30.444444444444446 17.42222222222222)"/><use xlink:href="#q" transform="matrix(1,0,0,1,792.5882352941177,1014.233466339081) translate(23.677777777777777 39.644444444444446)"/><path d="M941.18 1007.23c0-2.76 2.24-5 5-5h127.64c2.76 0 5 2.24 5 5v60.06c0 2.75-2.24 5-5 5H946.18c-2.76 0-5-2.25-5-5z" stroke="#333" stroke-width="4" fill="#fff"/><use xlink:href="#r" transform="matrix(1,0,0,1,953.1764705882352,1014.233466339081) translate(2.1666666666666643 29.17222222222222)"/><path d="M1101.76 1007.23c0-2.76 2.24-5 5-5h127.65c2.77 0 5 2.24 5 5v60.06c0 2.75-2.23 5-5 5h-127.64c-2.76 0-5-2.25-5-5z" stroke="#333" stroke-width="4" fill="#fff"/><use xlink:href="#s" transform="matrix(1,0,0,1,1113.764705882353,1014.233466339081) translate(-1.6444444444444457 29.81111111111111)"/><path d="M1012 959.38h-4V931h4zm117.07-59.18h-112.8l-2.26.6-1.4 1.4-.6 2.26V911h-4v-7.07l1.03-3.8 2.9-2.9 3.8-1.03h113.34z" fill="#333"/><path d="M1131.07 900.2h-2.05v-4h2.05zM1010 975.64l-4.64-14.26h9.28z" fill="#333"/><path d="M1010 982.12l-7.4-22.74h14.8zm-1.88-18.74l1.88 5.8 1.88-5.8z" fill="#333"/><use xlink:href="#t" transform="matrix(1,0,0,1,970.5,911.0029145546089) translate(0 15.68)"/><path d="M633.47 1045.8l.6 2.25 1.4 1.4 2.27.6h115.9v4H637.2l-3.8-1.02-2.9-2.9-1.03-3.8v-97.3h4zm0-116.78h-4v-6.62h4zm0-26.62h-4V724.55h4z" fill="#333"/><path d="M755.65 1054.06h-2.05v-4h2.05zM636.1 722.55h-9.26l4.63-14.27z" fill="#333"/><path d="M638.86 724.55h-14.78l7.4-22.74zm-9.27-4h3.75l-1.88-5.8z" fill="#333"/><use xlink:href="#u" transform="matrix(1,0,0,1,522.3705882352941,902.3961800646719) translate(0 15.68)"/><use xlink:href="#v" transform="matrix(1,0,0,1,522.3705882352941,902.3961800646719) translate(47.18000000000001 15.68)"/><use xlink:href="#w" transform="matrix(1,0,0,1,522.3705882352941,902.3961800646719) translate(77.18 15.68)"/><use xlink:href="#x" transform="matrix(1,0,0,1,522.3705882352941,902.3961800646719) translate(142.72000000000003 15.68)"/><use xlink:href="#y" transform="matrix(1,0,0,1,490.34058823529415,929.0207158261107) translate(0 15.68)"/><use xlink:href="#z" transform="matrix(1,0,0,1,490.34058823529415,929.0207158261107) translate(87.92000000000002 15.68)"/><use xlink:href="#A" transform="matrix(1,0,0,1,490.34058823529415,929.0207158261107) translate(112.16000000000003 15.68)"/><use xlink:href="#B" transform="matrix(1,0,0,1,490.34058823529415,929.0207158261107) translate(184.44000000000005 15.68)"/><path d="M642.94 690.73c0 5-5.13 9.06-11.47 9.06-6.33 0-11.47-4.07-11.47-9.07s5.14-9.06 11.47-9.06c6.34 0 11.47 4.06 11.47 9.06zm-22.94 0h22.94m-11.47-9.06v18.12M1021.47 414.9c0-2.76 2.24-5 5-5h230.88c2.76 0 5 2.24 5 5V449c0 2.75-2.24 5-5 5h-230.88c-2.76 0-5-2.25-5-5z" stroke="#333" stroke-width="4" fill="#fff"/><use xlink:href="#C" transform="matrix(1,0,0,1,1033.4705882352937,421.9035915208125) translate(27.066666666666663 17.42222222222222)"/><use xlink:href="#f" transform="matrix(1,0,0,1,1033.4705882352937,421.9035915208125) translate(146.73333333333335 17.42222222222222)"/><path d="M1143.9 385.17h-4v-16.4h4zm0-34.17h-4v-4.5h4zM1012 303.23l.6 2.26 1.4 1.38 2.27.6h119.9l3.8 1.04 2.9 2.9 1.04 3.8v13.5h-4v-12.96l-.6-2.26-1.4-1.4-2.25-.6h-119.92l-3.8-1.03-2.9-2.9-1.03-3.8v-39.12h4zm0-58.58h-4V213.1h4z" fill="#333"/><path d="M1012 213.14h-4v-2.05h4zM1141.9 401.43l-4.62-14.26h9.27z" fill="#333"/><path d="M1141.9 407.9l-7.38-22.73h14.78zm-1.87-18.73l1.88 5.8 1.9-5.8z" fill="#333"/><use xlink:href="#D" transform="matrix(1,0,0,1,935.9899999999999,244.6537210003367) translate(0 15.68)"/><use xlink:href="#E" transform="matrix(1,0,0,1,935.9899999999999,244.6537210003367) translate(68.2 15.68)"/><use xlink:href="#F" transform="matrix(1,0,0,1,1066.3739869281042,328.7177978050623) translate(0 13.937777777777779)"/><use xlink:href="#G" transform="matrix(1,0,0,1,1064.4895424836598,351.00449088893333) translate(0 13.937777777777779)"/><path d="M1021.47 537.8c0-2.76 2.24-5 5-5h230.88c2.76 0 5 2.24 5 5v34.1c0 2.75-2.24 5-5 5h-230.88c-2.76 0-5-2.25-5-5z" stroke="#333" stroke-width="4" fill="#fff"/><use xlink:href="#H" transform="matrix(1,0,0,1,1033.4705882352937,544.8035381874638) translate(94.3 17.42222222222222)"/><path d="M1143.9 641.78h-4V620.6h4zm0-41.18h-4v-19.7h4z" fill="#333"/><path d="M1143.9 580.94h-4v-2.05h4zM1143.92 655.15l-6.7-13.42 9.17-1.37z" fill="#333"/><path d="M1144.88 661.55l-10.68-21.4 14.6-2.18zm-4.64-18.25l2.72 5.45 1-6z" fill="#333"/><use xlink:href="#I" transform="matrix(1,0,0,1,1119.681764705882,600.602804869875) translate(0 15.68)"/><path d="M877.12 638.82h-4v-15.67h4zm2.97-35.67h-4V580.9h4z" fill="#333"/><path d="M880.1 580.94h-4v-2.05h4zM875.12 655.08l-4.63-14.26h9.26z" fill="#333"/><path d="M875.12 661.55l-7.38-22.73h14.77zm-1.88-18.73l1.88 5.8 1.9-5.8z" fill="#333"/><use xlink:href="#I" transform="matrix(1,0,0,1,855.8582352941175,603.1486766505014) translate(0 15.68)"/><path d="M1390.53 677.66h-4V632.8h4zm0-64.87h-4v-24.14h4z" fill="#333"/><path d="M1390.53 679.92l-2-.26-2 .26v-2.32h4zM1393.16 586.66h-9.27l4.63-14.27z" fill="#333"/><path d="M1395.92 588.66h-14.78l7.4-22.74zm-9.27-4h3.76l-1.87-5.8z" fill="#333"/><use xlink:href="#J" transform="matrix(1,0,0,1,1335.7894117647058,612.789248364965) translate(0 15.68)"/><path d="M1390.53 541.77h-4V312.05h4zm-3.94-358.23l2.9 2.9 1.03 3.8v101.8h-4V190.8l-.6-2.26-1.4-1.4-2.27-.6h-95.17v-4h95.7z" fill="#333"/><path d="M1390.53 544.03l-2-.26-2 .26v-2.3h4zM1285.1 189.15l-14.27-4.64 14.26-4.62z" fill="#333"/><path d="M1287.1 191.9l-22.75-7.4 22.74-7.37zm-9.8-7.4l5.8 1.9v-3.77z" fill="#333"/><use xlink:href="#K" transform="matrix(1,0,0,1,1335.7894117647058,292.0544926016956) translate(0 15.68)"/><path d="M1400 554.85c0 5-5.14 9.06-11.47 9.06-6.34 0-11.47-4.05-11.47-9.05 0-5 5.13-9.06 11.47-9.06 6.33 0 11.47 4.04 11.47 9.05zm-22.94 0H1400m-11.47-9.06v18.1M1400 690.73c0 5-5.14 9.06-11.47 9.06-6.34 0-11.47-4.07-11.47-9.07s5.13-9.06 11.47-9.06c6.33 0 11.47 4.06 11.47 9.06zm-22.94 0H1400m-11.47-9.06v18.12" stroke="#333" stroke-width="4" fill="#fff"/><path d="M1285.02 692.73h-18.67v-4h18.67zm67.28 0h-40.62v-4h40.62z" fill="#333"/><path d="M1266.4 692.73h-2.05v-4h2.05zM1368.57 690.73l-14.27 4.64v-9.27z" fill="#333"/><path d="M1375.04 690.73l-22.74 7.4v-14.8zm-18.74 1.88l5.8-1.87-5.8-1.88z" fill="#333"/><use xlink:href="#L" transform="matrix(1,0,0,1,1285.0204221125564,680.7314794814652) translate(0 15.68)"/><path d="M873.7 765.64h-4v-10h4zm0-30h-4V721.9h4z" fill="#333"/><path d="M873.7 721.96h-4v-2.05h4zM871.7 781.9l-4.64-14.26h9.27z" fill="#333"/><path d="M871.7 788.38l-7.4-22.74h14.78zm-1.9-18.74l1.9 5.8 1.88-5.8z" fill="#333"/><use xlink:href="#I" transform="matrix(1,0,0,1,849.4665127205365,735.6427933664089) translate(0 15.68)"/><path d="M1143.8 754.14v11.5h-4v-12.77h4zm0-21.27h-4V721.9h4z" fill="#333"/><path d="M1143.8 721.96h-4v-2.05h4zM1141.8 781.9l-4.65-14.26h9.27z" fill="#333"/><path d="M1141.8 788.38l-7.4-22.74h14.77zm-1.9-18.74l1.9 5.8 1.87-5.8z" fill="#333"/><use xlink:href="#I" transform="matrix(1,0,0,1,1119.5560660507413,732.8684792080854) translate(0 15.68)"/><path d="M880.1 508.07h-4v-13.6h4zm0-33.6h-4v-16.48h4z" fill="#333"/><path d="M880.1 458.04h-4V456h4zM878.1 524.33l-4.65-14.26h9.27z" fill="#333"/><path d="M878.1 530.8l-7.4-22.73h14.78zm-1.9-18.73l1.9 5.8 1.87-5.8z" fill="#333"/><use xlink:href="#M" transform="matrix(1,0,0,1,796.6782352941175,474.4649126478129) translate(0 15.68)"/><use xlink:href="#N" transform="matrix(1,0,0,1,796.6782352941175,474.4649126478129) translate(86.02000000000002 15.68)"/><path d="M1143.9 508.07h-4V495.7h4zm0-32.36h-4V458h4z" fill="#333"/><path d="M1143.9 458.04h-4V456h4zM1141.9 524.33l-4.62-14.26h9.27z" fill="#333"/><path d="M1141.9 530.8l-7.38-22.73h14.78zm-1.87-18.73l1.88 5.8 1.9-5.8z" fill="#333"/><use xlink:href="#M" transform="matrix(1,0,0,1,1060.501764705882,475.70508051930864) translate(0 15.68)"/><use xlink:href="#N" transform="matrix(1,0,0,1,1060.501764705882,475.70508051930864) translate(86.02000000000002 15.68)"/><path d="M1390.53 1046.32l-1.03 3.8-2.9 2.9-3.8 1.04h-116.45v-4h115.9l2.27-.6 1.4-1.4.6-2.27V949h4zm0-117.3h-4v-6.62h4zm0-26.62h-4V724.55h4z" fill="#333"/><path d="M1266.4 1054.06h-2.05v-4h2.05zM1393.16 722.55h-9.27l4.63-14.27z" fill="#333"/><path d="M1395.92 724.55h-14.78l7.4-22.74zm-9.27-4h3.76l-1.87-5.8z" fill="#333"/><use xlink:href="#u" transform="matrix(1,0,0,1,1279.429411764706,902.396179958896) translate(0 15.68)"/><use xlink:href="#v" transform="matrix(1,0,0,1,1279.429411764706,902.396179958896) translate(47.18000000000001 15.68)"/><use xlink:href="#w" transform="matrix(1,0,0,1,1279.429411764706,902.396179958896) translate(77.18 15.68)"/><use xlink:href="#O" transform="matrix(1,0,0,1,1279.429411764706,902.396179958896) translate(142.72000000000003 15.68)"/><use xlink:href="#y" transform="matrix(1,0,0,1,1247.3994117647057,929.0207160025811) translate(0 15.68)"/><use xlink:href="#z" transform="matrix(1,0,0,1,1247.3994117647057,929.0207160025811) translate(87.92000000000002 15.68)"/><use xlink:href="#A" transform="matrix(1,0,0,1,1247.3994117647057,929.0207160025811) translate(112.16000000000003 15.68)"/><use xlink:href="#B" transform="matrix(1,0,0,1,1247.3994117647057,929.0207160025811) translate(184.44000000000005 15.68)"/><path d="M703.4 556.85h-35.7v-4h35.7zm50.25 0h-23.6v-4h23.6z" fill="#333"/><path d="M755.65 556.85h-2.05v-4h2.05zM665.7 559.48l-14.27-4.63 14.27-4.64z" fill="#333"/><path d="M667.7 562.24l-22.74-7.4 22.74-7.38zm-9.8-7.4l5.8 1.9v-3.78z" fill="#333"/><use xlink:href="#L" transform="matrix(1,0,0,1,703.3993532073384,544.8470176411917) translate(0 15.68)"/><path d="M633.47 541.77h-4V312.05h4zM732.9 186.5h-95.16l-2.26.62-1.4 1.4-.6 2.26v101.27h-4v-101.8l1.02-3.8 2.9-2.9 3.8-1.04h95.7z" fill="#333"/><path d="M633.47 544.03l-2-.26-2 .26v-2.3h4zM749.17 184.5l-14.26 4.65v-9.27z" fill="#333"/><path d="M755.65 184.5l-22.74 7.4v-14.77zm-18.74 1.9l5.8-1.9-5.8-1.87z" fill="#333"/><use xlink:href="#K" transform="matrix(1,0,0,1,578.7305872070917,292.05449236873625) translate(0 15.68)"/><path d="M700.46 692.73H667.7v-4h32.76zm53.2 0H727.1v-4h26.53z" fill="#333"/><path d="M755.65 692.73h-2.05v-4h2.05zM665.7 695.37l-14.27-4.64 14.27-4.63z" fill="#333"/><path d="M667.7 698.12l-22.74-7.4 22.74-7.38zm-9.8-7.4l5.8 1.9v-3.77z" fill="#333"/><use xlink:href="#L" transform="matrix(1,0,0,1,700.46098138893,680.7314794814652) translate(0 15.68)"/><path d="M633.47 677.66h-4V632.8h4zm0-64.87h-4v-24.14h4z" fill="#333"/><path d="M633.47 679.92l-2-.26-2 .26v-2.32h4zM636.1 586.66h-9.26l4.63-14.26z" fill="#333"/><path d="M638.86 588.66h-14.78l7.4-22.74zm-9.27-4h3.75l-1.88-5.8z" fill="#333"/><use xlink:href="#J" transform="matrix(1,0,0,1,578.7305872070917,612.7892485362706) translate(0 15.68)"/><path d="M1287.95 556.85h-21.6v-4h21.6zm64.35 0h-37.7v-4h37.7z" fill="#333"/><path d="M1266.4 556.85h-2.05v-4h2.05zM1368.57 554.85l-14.27 4.63v-9.27z" fill="#333"/><path d="M1375.04 554.85l-22.74 7.4v-14.8zm-18.74 1.88l5.8-1.88-5.8-1.9z" fill="#333"/><g><use xlink:href="#L" transform="matrix(1,0,0,1,1287.94899521576,544.8470176411917) translate(0 15.68)"/></g><path d="M1132.57 804.57h74.66v21.27h-74.66zM1132.57 825.84h74.66v21.26h-74.66zM1132.57 847.1h74.66v21.26h-74.66zM1132.57 868.36h74.66v21.27h-74.66zM1132.57 889.63h74.66v21.26h-74.66z" fill="#fff"/><path d="M1132.57 804.57v21.27M1207.23 804.57v21.27M1132.57 825.84v21.26M1207.23 825.84v21.26M1132.57 847.1v21.26M1207.23 847.1v21.26M1132.57 868.36v21.27M1207.23 868.36v21.27M1132.57 889.63v21.26M1207.23 889.63v21.26M1132.57 804.57h74.66M1132.57 825.84h74.66M1132.57 847.1h74.66M1132.57 868.36h74.66M1132.57 889.63h74.66M1132.57 910.9h74.66" stroke="#333" stroke-width="3" fill="none"/><defs><path fill="#333" d="M586-604H224v165h319v125H224V0H74v-729h512v125" id="P"/><path fill="#333" d="M272-549c164-1 260 122 252 316H162c4 105 46 135 112 135 51 0 95-15 107-54h138C488-46 390 9 269 9 116 9 22-90 22-263c0-181 95-286 250-286zm107 223c-7-77-49-116-109-116-62 0-97 41-106 116h215" id="Q"/><path fill="#333" d="M301 0c-25 1-50 4-81 4C128 4 83-31 83-116v-320H14v-93h69v-145h140v145h78v93h-78v282c-5 64 29 63 78 56V0" id="R"/><path fill="#333" d="M522-187C509-72 418 9 287 9 127 9 34-88 34-266c0-184 94-283 255-283 135 0 223 79 233 211H388c-16-71-43-98-100-98-88 0-114 71-114 170 0 105 43 162 114 162 54 0 82-27 100-83h134" id="S"/><path fill="#333" d="M541 0H401v-330c0-73-36-100-86-100-63 0-108 44-108 106V0H67v-729h140v267c39-59 89-87 158-87 102 0 176 61 176 187V0" id="T"/><path fill="#333" d="M291-714L85 14h-97l206-728h97" id="U"/><path fill="#333" d="M776 0H626v-568L497 0H347L216-568V0H66v-729h224l132 580 128-580h226V0" id="V"/><path fill="#333" d="M824 0H684v-360c0-43-29-70-76-70-60 0-96 40-96 106V0H372v-360c0-43-29-70-76-70-60 0-96 40-96 106V0H60v-540h139v67c46-55 86-76 148-76 67 0 121 29 147 80 42-56 90-80 158-80 108 0 172 62 172 167V0" id="W"/><path fill="#333" d="M569-266C569-93 466 9 302 9 136 9 35-92 35-270c0-177 101-279 266-279 169 0 268 100 268 283zm-140-2c0-106-50-168-127-168-76 0-127 63-127 166s51 166 127 166c75 0 127-63 127-164" id="X"/><path fill="#333" d="M370-406c-99-18-167 21-167 119V0H63v-540h140v106c34-78 89-121 167-114v142" id="Y"/><path fill="#333" d="M538-540L316 99C275 219 206 226 86 215V110c67 23 125-21 124-87L9-540h154l119 393 112-393h144" id="Z"/><g id="a"><use transform="matrix(0.022222222222222223,0,0,0.022222222222222223,0,0)" xlink:href="#P"/><use transform="matrix(0.022222222222222223,0,0,0.022222222222222223,13.466666666666667,0)" xlink:href="#Q"/><use transform="matrix(0.022222222222222223,0,0,0.022222222222222223,25.711111111111112,0)" xlink:href="#R"/><use transform="matrix(0.022222222222222223,0,0,0.022222222222222223,33.111111111111114,0)" xlink:href="#S"/><use transform="matrix(0.022222222222222223,0,0,0.022222222222222223,45.46666666666667,0)" xlink:href="#T"/><use transform="matrix(0.022222222222222223,0,0,0.022222222222222223,59.044444444444444,0)" xlink:href="#U"/><use transform="matrix(0.022222222222222223,0,0,0.022222222222222223,65.22222222222223,0)" xlink:href="#V"/><use transform="matrix(0.022222222222222223,0,0,0.022222222222222223,83.73333333333335,0)" xlink:href="#Q"/><use transform="matrix(0.022222222222222223,0,0,0.022222222222222223,96.08888888888892,0)" xlink:href="#W"/><use transform="matrix(0.022222222222222223,0,0,0.022222222222222223,115.84444444444446,0)" xlink:href="#X"/><use transform="matrix(0.022222222222222223,0,0,0.022222222222222223,129.42222222222225,0)" xlink:href="#Y"/><use transform="matrix(0.022222222222222223,0,0,0.022222222222222223,138.62222222222223,0)" xlink:href="#Z"/></g><path fill="#333" d="M685-249C676-82 555 12 374 12 171 12 44-130 44-364c0-236 128-377 334-377 164 0 291 91 304 259H539c-22-94-75-131-156-131-118 0-189 90-189 251 0 159 68 248 184 248 93 0 152-42 161-135h146" id="aa"/><path fill="#333" d="M633-503c0 148-86 243-220 243H226V0H76v-729h322c152 0 235 80 235 226zm-150 9c0-75-37-110-117-110H226v219h140c80 0 117-35 117-109" id="ab"/><path fill="#333" d="M654-246C654-74 532 12 365 12S76-74 76-246v-483h150v483c0 88 45 130 139 130s139-42 139-130v-483h150v483" id="ac"/><g id="b"><use transform="matrix(0.022222222222222223,0,0,0.022222222222222223,0,0)" xlink:href="#aa"/><use transform="matrix(0.022222222222222223,0,0,0.022222222222222223,16.044444444444444,0)" xlink:href="#ab"/><use transform="matrix(0.022222222222222223,0,0,0.022222222222222223,30.866666666666667,0)" xlink:href="#ac"/></g><path fill="#333" d="M207 0H67v-540h140V0zm2-605H69v-140h140v140" id="ad"/><path fill="#333" d="M574-270C574-106 478 9 348 9c-68 0-116-21-150-81v290H58v-758h140v80c34-60 82-89 150-89 141 0 226 119 226 279zm-140 2c0-103-47-164-118-164-70 0-118 61-118 162s48 162 118 162c69 0 118-62 118-160" id="ae"/><path fill="#333" d="M207 0H67v-729h140V0" id="af"/><path fill="#333" d="M546 0H406v-333c0-64-30-97-90-97-68 0-113 42-113 106V0H63v-540h140v78c40-60 89-87 162-87 115 0 181 68 181 187V0" id="ag"/><g id="c"><use transform="matrix(0.022222222222222223,0,0,0.022222222222222223,0,0)" xlink:href="#ab"/><use transform="matrix(0.022222222222222223,0,0,0.022222222222222223,14.822222222222223,0)" xlink:href="#ad"/><use transform="matrix(0.022222222222222223,0,0,0.022222222222222223,21,0)" xlink:href="#ae"/><use transform="matrix(0.022222222222222223,0,0,0.022222222222222223,34.577777777777776,0)" xlink:href="#Q"/><use transform="matrix(0.022222222222222223,0,0,0.022222222222222223,46.93333333333332,0)" xlink:href="#af"/><use transform="matrix(0.022222222222222223,0,0,0.022222222222222223,53.1111111111111,0)" xlink:href="#ad"/><use transform="matrix(0.022222222222222223,0,0,0.022222222222222223,59.288888888888884,0)" xlink:href="#ag"/><use transform="matrix(0.022222222222222223,0,0,0.022222222222222223,72.86666666666666,0)" xlink:href="#Q"/></g><path fill="#333" d="M520-167C520-51 439 8 284 9 120 9 33-53 29-171h137c12 58 46 70 110 70 98 0 147-55 57-83l-167-52C66-267 48-303 48-369c0-111 85-180 222-180 145 0 233 69 235 183H370c-1-49-34-73-101-73-49 0-81 20-81 50 0 22 10 31 49 42l177 51c71 21 106 67 106 129" id="ah"/><path fill="#333" d="M524 0H372c-13-16-16-40-16-68C307-17 252 9 192 9 102 9 28-41 28-146c0-119 94-156 215-173 70-10 112-6 112-63 0-36-27-54-81-54-69 0-92 18-99 74H40c9-125 85-187 231-187s221 56 221 166v300c0 28 7 43 32 66V0zM244-104c79 1 117-58 111-151-15 11-75 19-107 26-58 11-80 26-80 67 0 40 29 58 76 58" id="ai"/><path fill="#333" d="M541 18c0 127-94 200-257 200-148 0-237-65-239-153h145c11 41 46 63 99 63 70 0 119-45 119-110v-80C356-10 318 9 255 9 122 9 34-96 34-264c0-167 96-285 224-285 62 0 108 28 150 92v-83h133V18zM410-266c0-100-52-166-122-166-68 0-114 64-114 166 0 98 46 158 112 158 73 0 124-60 124-158" id="aj"/><g id="d"><use transform="matrix(0.022222222222222223,0,0,0.022222222222222223,0,0)" xlink:href="#ah"/><use transform="matrix(0.022222222222222223,0,0,0.022222222222222223,12.355555555555556,0)" xlink:href="#R"/><use transform="matrix(0.022222222222222223,0,0,0.022222222222222223,19.866666666666667,0)" xlink:href="#ai"/><use transform="matrix(0.022222222222222223,0,0,0.022222222222222223,32.22222222222222,0)" xlink:href="#aj"/><use transform="matrix(0.022222222222222223,0,0,0.022222222222222223,46.02222222222221,0)" xlink:href="#Q"/></g><path fill="#333" d="M545 0H405v-62C370-16 323 9 256 9 113 9 29-116 29-269c0-163 98-280 227-280 67 0 114 25 149 79v-259h140V0zM405-267c0-103-47-165-118-165-70 0-118 63-118 163 0 99 48 161 118 161s118-61 118-159" id="ak"/><g id="e"><use transform="matrix(0.022222222222222223,0,0,0.022222222222222223,0,0)" xlink:href="#aa"/><use transform="matrix(0.022222222222222223,0,0,0.022222222222222223,16.044444444444444,0)" xlink:href="#X"/><use transform="matrix(0.022222222222222223,0,0,0.022222222222222223,29.62222222222222,0)" xlink:href="#ak"/><use transform="matrix(0.022222222222222223,0,0,0.022222222222222223,43.199999999999996,0)" xlink:href="#Q"/></g><path fill="#333" d="M598-604H385V0H235v-604H14v-125h584v125" id="al"/><path fill="#333" d="M579 0H80v-729h150v604h349V0" id="am"/><path fill="#333" d="M545-387C753-283 685 0 410 0H82v-729h325c152 0 238 89 238 192 0 62-28 104-100 150zm-44-134c0-111-163-78-269-83v165c105-5 269 28 269-82zm21 302c0-62-38-95-111-95H232v189h179c73 0 111-33 111-94" id="an"/><g id="f"><use transform="matrix(0.022222222222222223,0,0,0.022222222222222223,0,0)" xlink:href="#al"/><use transform="matrix(0.022222222222222223,0,0,0.022222222222222223,13.577777777777778,0)" xlink:href="#am"/><use transform="matrix(0.022222222222222223,0,0,0.022222222222222223,27.155555555555555,0)" xlink:href="#an"/></g><path fill="#333" d="M313-436h-83V0H90v-436H14v-93h76c-10-123 19-204 138-200 19 0 54 1 80 3v105c-39-7-78-7-78 39v53h83v93" id="ao"/><g id="g"><use transform="matrix(0.022222222222222223,0,0,0.022222222222222223,0,0)" xlink:href="#ac"/><use transform="matrix(0.022222222222222223,0,0,0.022222222222222223,16.155555555555555,0)" xlink:href="#ag"/><use transform="matrix(0.022222222222222223,0,0,0.022222222222222223,29.733333333333334,0)" xlink:href="#ad"/><use transform="matrix(0.022222222222222223,0,0,0.022222222222222223,35.91111111111111,0)" xlink:href="#ao"/><use transform="matrix(0.022222222222222223,0,0,0.022222222222222223,43.31111111111111,0)" xlink:href="#ad"/><use transform="matrix(0.022222222222222223,0,0,0.022222222222222223,49.488888888888894,0)" xlink:href="#Q"/><use transform="matrix(0.022222222222222223,0,0,0.022222222222222223,61.844444444444434,0)" xlink:href="#ak"/></g><path fill="#333" d="M515-499c0 96-36 150-159 240-104 76-126 96-144 134h300V0H30c7-131 45-193 164-276 157-110 181-142 181-220 0-71-38-114-100-114-71 0-107 58-101 148H40c-11-165 77-262 232-262 149 0 243 88 243 225" id="ap"/><g id="h"><use transform="matrix(0.022222222222222223,0,0,0.022222222222222223,0,0)" xlink:href="#am"/><use transform="matrix(0.022222222222222223,0,0,0.022222222222222223,13.577777777777778,0)" xlink:href="#ap"/></g><g id="i"><use transform="matrix(0.022222222222222223,0,0,0.022222222222222223,0,0)" xlink:href="#aa"/><use transform="matrix(0.022222222222222223,0,0,0.022222222222222223,16.044444444444444,0)" xlink:href="#ai"/><use transform="matrix(0.022222222222222223,0,0,0.022222222222222223,28.400000000000002,0)" xlink:href="#S"/><use transform="matrix(0.022222222222222223,0,0,0.022222222222222223,40.75555555555555,0)" xlink:href="#T"/><use transform="matrix(0.022222222222222223,0,0,0.022222222222222223,54.33333333333333,0)" xlink:href="#Q"/></g><g id="j"><use transform="matrix(0.022222222222222223,0,0,0.022222222222222223,0,0)" xlink:href="#V"/><use transform="matrix(0.022222222222222223,0,0,0.022222222222222223,18.511111111111113,0)" xlink:href="#Q"/><use transform="matrix(0.022222222222222223,0,0,0.022222222222222223,30.866666666666667,0)" xlink:href="#W"/><use transform="matrix(0.022222222222222223,0,0,0.022222222222222223,50.62222222222223,0)" xlink:href="#X"/><use transform="matrix(0.022222222222222223,0,0,0.022222222222222223,64.2,0)" xlink:href="#Y"/><use transform="matrix(0.022222222222222223,0,0,0.022222222222222223,73.4,0)" xlink:href="#Z"/></g><g id="k"><use transform="matrix(0.022222222222222223,0,0,0.022222222222222223,0,0)" xlink:href="#aa"/><use transform="matrix(0.022222222222222223,0,0,0.022222222222222223,16.044444444444444,0)" xlink:href="#X"/><use transform="matrix(0.022222222222222223,0,0,0.022222222222222223,29.62222222222222,0)" xlink:href="#ag"/><use transform="matrix(0.022222222222222223,0,0,0.022222222222222223,43.199999999999996,0)" xlink:href="#R"/><use transform="matrix(0.022222222222222223,0,0,0.022222222222222223,50.599999999999994,0)" xlink:href="#Y"/><use transform="matrix(0.022222222222222223,0,0,0.022222222222222223,59.24444444444444,0)" xlink:href="#X"/><use transform="matrix(0.022222222222222223,0,0,0.022222222222222223,72.82222222222222,0)" xlink:href="#af"/><use transform="matrix(0.022222222222222223,0,0,0.022222222222222223,79,0)" xlink:href="#af"/><use transform="matrix(0.022222222222222223,0,0,0.022222222222222223,85.17777777777778,0)" xlink:href="#Q"/><use transform="matrix(0.022222222222222223,0,0,0.022222222222222223,97.53333333333333,0)" xlink:href="#Y"/></g><path fill="#333" d="M578 189H-22v-69h600v69" id="aq"/><path fill="#333" d="M303 200H203c-220-336-220-593 0-929h100C197-525 163-411 163-265c0 147 34 259 140 465" id="ar"/><path fill="#333" d="M122-729c220 336 220 593 0 929H22C128-4 162-118 162-264c0-147-34-259-140-465h100" id="as"/><g id="l"><use transform="matrix(0.017777777777777778,0,0,0.017777777777777778,0,0)" xlink:href="#ad"/><use transform="matrix(0.017777777777777778,0,0,0.017777777777777778,4.942222222222222,0)" xlink:href="#ag"/><use transform="matrix(0.017777777777777778,0,0,0.017777777777777778,15.804444444444444,0)" xlink:href="#ah"/><use transform="matrix(0.017777777777777778,0,0,0.017777777777777778,25.68888888888889,0)" xlink:href="#ag"/><use transform="matrix(0.017777777777777778,0,0,0.017777777777777778,36.55111111111111,0)" xlink:href="#aq"/><use transform="matrix(0.017777777777777778,0,0,0.017777777777777778,46.43555555555555,0)" xlink:href="#Y"/><use transform="matrix(0.017777777777777778,0,0,0.017777777777777778,53.44,0)" xlink:href="#Q"/><use transform="matrix(0.017777777777777778,0,0,0.017777777777777778,63.32444444444444,0)" xlink:href="#ai"/><use transform="matrix(0.017777777777777778,0,0,0.017777777777777778,73.20888888888888,0)" xlink:href="#ak"/><use transform="matrix(0.017777777777777778,0,0,0.017777777777777778,84.0711111111111,0)" xlink:href="#aq"/><use transform="matrix(0.017777777777777778,0,0,0.017777777777777778,93.95555555555553,0)" xlink:href="#ak"/><use transform="matrix(0.017777777777777778,0,0,0.017777777777777778,104.81777777777776,0)" xlink:href="#Q"/><use transform="matrix(0.017777777777777778,0,0,0.017777777777777778,114.7022222222222,0)" xlink:href="#af"/><use transform="matrix(0.017777777777777778,0,0,0.017777777777777778,119.64444444444443,0)" xlink:href="#ai"/><use transform="matrix(0.017777777777777778,0,0,0.017777777777777778,129.26222222222222,0)" xlink:href="#Z"/><use transform="matrix(0.017777777777777778,0,0,0.017777777777777778,139.14666666666668,0)" xlink:href="#ar"/><use transform="matrix(0.017777777777777778,0,0,0.017777777777777778,145.06666666666666,0)" xlink:href="#as"/></g><path fill="#333" d="M213 0H63v-729h150V0" id="at"/><path fill="#333" d="M243 21C111 12 19-75 22-207h131c3 70 34 111 90 121v-213C108-330 39-401 39-512c0-112 75-185 204-197v-54h68v54c126 7 206 86 206 211H389c0-61-27-103-78-110v201c155 43 216 102 216 212 0 130-84 206-216 216v105h-68V21zm0-448v-181c-55 11-81 41-81 92 0 44 25 71 81 89zm152 244c0-48-28-82-84-99v196c56-14 84-47 84-97" id="au"/><g id="m"><use transform="matrix(0.022222222222222223,0,0,0.022222222222222223,0,0)" xlink:href="#at"/><use transform="matrix(0.022222222222222223,0,0,0.022222222222222223,6.177777777777778,0)" xlink:href="#au"/></g><path fill="#333" d="M362-729c234-10 319 156 319 364C681-155 594 0 362 0H77v-729h285zm169 365c0-161-56-240-169-240H227v479h135c113 0 169-79 169-239" id="av"/><path fill="#333" d="M677 0H516c-29-36-26-130-21-202 9-126-159-77-265-87V0H80v-729h391c129 0 196 84 196 197 0 89-41 148-123 180 93 40 97 50 101 265 0 32 9 47 32 60V0zM517-511c0-63-24-93-106-93H230v190h181c85 0 106-32 106-97" id="aw"/><path fill="#333" d="M703 0H549l-48-147H228L179 0H26l259-729h166zM460-272l-95-285-95 285h190" id="ax"/><g id="n"><use transform="matrix(0.022222222222222223,0,0,0.022222222222222223,0,0)" xlink:href="#av"/><use transform="matrix(0.022222222222222223,0,0,0.022222222222222223,16.044444444444444,0)" xlink:href="#aw"/><use transform="matrix(0.022222222222222223,0,0,0.022222222222222223,32.08888888888889,0)" xlink:href="#ax"/><use transform="matrix(0.022222222222222223,0,0,0.022222222222222223,48.13333333333333,0)" xlink:href="#V"/></g><g id="o"><use transform="matrix(0.022222222222222223,0,0,0.022222222222222223,0,0)" xlink:href="#V"/><use transform="matrix(0.022222222222222223,0,0,0.022222222222222223,18.511111111111113,0)" xlink:href="#X"/><use transform="matrix(0.022222222222222223,0,0,0.022222222222222223,32.08888888888889,0)" xlink:href="#ak"/><use transform="matrix(0.022222222222222223,0,0,0.022222222222222223,45.66666666666667,0)" xlink:href="#Q"/><use transform="matrix(0.022222222222222223,0,0,0.022222222222222223,58.02222222222221,0)" xlink:href="#af"/></g><g id="p"><use transform="matrix(0.022222222222222223,0,0,0.022222222222222223,0,0)" xlink:href="#an"/><use transform="matrix(0.022222222222222223,0,0,0.022222222222222223,16.044444444444444,0)" xlink:href="#ai"/><use transform="matrix(0.022222222222222223,0,0,0.022222222222222223,28.400000000000002,0)" xlink:href="#ah"/><use transform="matrix(0.022222222222222223,0,0,0.022222222222222223,40.75555555555555,0)" xlink:href="#Q"/></g><g id="q"><use transform="matrix(0.022222222222222223,0,0,0.022222222222222223,0,0)" xlink:href="#av"/><use transform="matrix(0.022222222222222223,0,0,0.022222222222222223,16.044444444444444,0)" xlink:href="#aw"/><use transform="matrix(0.022222222222222223,0,0,0.022222222222222223,32.08888888888889,0)" xlink:href="#ax"/><use transform="matrix(0.022222222222222223,0,0,0.022222222222222223,48.13333333333333,0)" xlink:href="#V"/></g><path fill="#333" d="M541 0H401v-71C361-18 312 9 239 9 124 9 58-59 58-178v-362h140v333c0 65 30 97 90 97 68 0 113-42 113-106v-324h140V0" id="ay"/><g id="r"><use transform="matrix(0.022222222222222223,0,0,0.022222222222222223,0,0)" xlink:href="#aw"/><use transform="matrix(0.022222222222222223,0,0,0.022222222222222223,16.044444444444444,0)" xlink:href="#ai"/><use transform="matrix(0.022222222222222223,0,0,0.022222222222222223,28.400000000000002,0)" xlink:href="#W"/><use transform="matrix(0.022222222222222223,0,0,0.022222222222222223,48.155555555555544,0)" xlink:href="#ay"/><use transform="matrix(0.022222222222222223,0,0,0.022222222222222223,61.73333333333333,0)" xlink:href="#af"/><use transform="matrix(0.022222222222222223,0,0,0.022222222222222223,67.91111111111111,0)" xlink:href="#ai"/><use transform="matrix(0.022222222222222223,0,0,0.022222222222222223,80.26666666666667,0)" xlink:href="#R"/><use transform="matrix(0.022222222222222223,0,0,0.022222222222222223,87.44444444444444,0)" xlink:href="#X"/><use transform="matrix(0.022222222222222223,0,0,0.022222222222222223,101.02222222222223,0)" xlink:href="#Y"/></g><path fill="#333" d="M516-218C516-80 419 9 268 9 123 9 29-80 29-222h136c0 73 40 111 106 111 61 0 105-45 105-107 0-76-54-106-159-106v-94c88 3 137-25 136-100 0-59-32-93-88-93-69 0-97 37-97 125H38c-5-162 89-238 230-238 137 0 225 75 225 193 0 65-27 103-93 144 80 39 116 86 116 169" id="az"/><g id="s"><use transform="matrix(0.022222222222222223,0,0,0.022222222222222223,0,0)" xlink:href="#av"/><use transform="matrix(0.022222222222222223,0,0,0.022222222222222223,16.044444444444444,0)" xlink:href="#aw"/><use transform="matrix(0.022222222222222223,0,0,0.022222222222222223,32.08888888888889,0)" xlink:href="#ax"/><use transform="matrix(0.022222222222222223,0,0,0.022222222222222223,48.13333333333333,0)" xlink:href="#V"/><use transform="matrix(0.022222222222222223,0,0,0.022222222222222223,66.64444444444445,0)" xlink:href="#ah"/><use transform="matrix(0.022222222222222223,0,0,0.022222222222222223,79,0)" xlink:href="#ad"/><use transform="matrix(0.022222222222222223,0,0,0.022222222222222223,85.17777777777778,0)" xlink:href="#W"/><use transform="matrix(0.022222222222222223,0,0,0.022222222222222223,104.93333333333334,0)" xlink:href="#az"/></g><path fill="#333" d="M544 218H404V-72C371-13 321 9 253 9 115 9 28-108 28-270c0-165 96-279 226-279 67 0 117 30 150 89v-80h140v758zM404-267c0-105-47-165-118-165-70 0-118 61-118 162s48 162 118 162 118-61 118-159" id="aA"/><g id="t"><use transform="matrix(0.02,0,0,0.02,0,0)" xlink:href="#aw"/><use transform="matrix(0.02,0,0,0.02,14.44,0)" xlink:href="#Q"/><use transform="matrix(0.02,0,0,0.02,25.560000000000002,0)" xlink:href="#aA"/><use transform="matrix(0.02,0,0,0.02,37.88,0)" xlink:href="#ay"/><use transform="matrix(0.02,0,0,0.02,50.1,0)" xlink:href="#Q"/><use transform="matrix(0.02,0,0,0.02,61.22,0)" xlink:href="#ah"/><use transform="matrix(0.02,0,0,0.02,72.34,0)" xlink:href="#R"/></g><path fill="#333" d="M932-729L730 0H595L473-569 354 0H219L13-729h159l113 546 113-546h148l118 547 109-547h159" id="aB"/><g id="u"><use transform="matrix(0.02,0,0,0.02,0,0)" xlink:href="#aB"/><use transform="matrix(0.02,0,0,0.02,18.279999999999998,0)" xlink:href="#ai"/><use transform="matrix(0.02,0,0,0.02,29.400000000000002,0)" xlink:href="#ad"/><use transform="matrix(0.02,0,0,0.02,34.96,0)" xlink:href="#R"/></g><g id="v"><use transform="matrix(0.02,0,0,0.02,0,0)" xlink:href="#X"/><use transform="matrix(0.02,0,0,0.02,12.22,0)" xlink:href="#ag"/></g><g id="w"><use transform="matrix(0.02,0,0,0.02,0,0)" xlink:href="#av"/><use transform="matrix(0.02,0,0,0.02,14.44,0)" xlink:href="#aw"/><use transform="matrix(0.02,0,0,0.02,28.88,0)" xlink:href="#ax"/><use transform="matrix(0.02,0,0,0.02,43.32,0)" xlink:href="#V"/></g><g id="x"><use transform="matrix(0.02,0,0,0.02,0,0)" xlink:href="#am"/><use transform="matrix(0.02,0,0,0.02,12.22,0)" xlink:href="#ai"/><use transform="matrix(0.02,0,0,0.02,23.340000000000003,0)" xlink:href="#R"/><use transform="matrix(0.02,0,0,0.02,29.900000000000002,0)" xlink:href="#Q"/><use transform="matrix(0.02,0,0,0.02,41.02,0)" xlink:href="#ag"/><use transform="matrix(0.02,0,0,0.02,53.24,0)" xlink:href="#S"/><use transform="matrix(0.02,0,0,0.02,64.36,0)" xlink:href="#Z"/></g><path fill="#333" d="M575-263C575-100 477 9 348 9c-68 0-115-25-149-71V0H59v-729h140v259c34-54 82-79 149-79 142 0 227 133 227 286zm-140-6c0-100-49-163-118-163-70 0-118 62-118 160 0 103 47 164 118 164 69 0 118-63 118-161" id="aC"/><path fill="#333" d="M548 0H384L255-238l-56 61V0H59v-729h140v399l177-210h159L351-336" id="aD"/><g id="y"><use transform="matrix(0.02,0,0,0.02,0,0)" xlink:href="#aa"/><use transform="matrix(0.02,0,0,0.02,14.44,0)" xlink:href="#ai"/><use transform="matrix(0.02,0,0,0.02,25.560000000000002,0)" xlink:href="#af"/><use transform="matrix(0.02,0,0,0.02,31.120000000000005,0)" xlink:href="#af"/><use transform="matrix(0.02,0,0,0.02,36.68000000000001,0)" xlink:href="#aC"/><use transform="matrix(0.02,0,0,0.02,48.90000000000001,0)" xlink:href="#ai"/><use transform="matrix(0.02,0,0,0.02,60.02000000000001,0)" xlink:href="#S"/><use transform="matrix(0.02,0,0,0.02,71.24000000000001,0)" xlink:href="#aD"/></g><g id="z"><use transform="matrix(0.02,0,0,0.02,0,0)" xlink:href="#R"/><use transform="matrix(0.02,0,0,0.02,6.46,0)" xlink:href="#X"/></g><g id="A"><use transform="matrix(0.02,0,0,0.02,0,0)" xlink:href="#ai"/><use transform="matrix(0.02,0,0,0.02,11.120000000000001,0)" xlink:href="#S"/><use transform="matrix(0.02,0,0,0.02,22.240000000000002,0)" xlink:href="#S"/><use transform="matrix(0.02,0,0,0.02,33.36,0)" xlink:href="#Q"/><use transform="matrix(0.02,0,0,0.02,44.480000000000004,0)" xlink:href="#ah"/><use transform="matrix(0.02,0,0,0.02,55.60000000000001,0)" xlink:href="#ah"/></g><path fill="#333" d="M298-207H26v-135h272v135" id="aE"/><g id="B"><use transform="matrix(0.02,0,0,0.02,0,0)" xlink:href="#S"/><use transform="matrix(0.02,0,0,0.02,11.120000000000001,0)" xlink:href="#ai"/><use transform="matrix(0.02,0,0,0.02,22.240000000000002,0)" xlink:href="#S"/><use transform="matrix(0.02,0,0,0.02,33.36,0)" xlink:href="#T"/><use transform="matrix(0.02,0,0,0.02,45.58,0)" xlink:href="#Q"/><use transform="matrix(0.02,0,0,0.02,56.7,0)" xlink:href="#aE"/><use transform="matrix(0.02,0,0,0.02,63.36,0)" xlink:href="#af"/><use transform="matrix(0.02,0,0,0.02,68.92,0)" xlink:href="#ad"/><use transform="matrix(0.02,0,0,0.02,74.48,0)" xlink:href="#ag"/><use transform="matrix(0.02,0,0,0.02,86.7,0)" xlink:href="#Q"/></g><g id="C"><use transform="matrix(0.022222222222222223,0,0,0.022222222222222223,0,0)" xlink:href="#am"/><use transform="matrix(0.022222222222222223,0,0,0.022222222222222223,13.577777777777778,0)" xlink:href="#X"/><use transform="matrix(0.022222222222222223,0,0,0.022222222222222223,27.155555555555555,0)" xlink:href="#ai"/><use transform="matrix(0.022222222222222223,0,0,0.022222222222222223,39.51111111111111,0)" xlink:href="#ak"/><use transform="matrix(0.022222222222222223,0,0,0.022222222222222223,53.08888888888889,0)" xlink:href="#U"/><use transform="matrix(0.022222222222222223,0,0,0.022222222222222223,59.266666666666666,0)" xlink:href="#ah"/><use transform="matrix(0.022222222222222223,0,0,0.022222222222222223,71.62222222222222,0)" xlink:href="#R"/><use transform="matrix(0.022222222222222223,0,0,0.022222222222222223,78.8,0)" xlink:href="#X"/><use transform="matrix(0.022222222222222223,0,0,0.022222222222222223,92.37777777777778,0)" xlink:href="#Y"/><use transform="matrix(0.022222222222222223,0,0,0.022222222222222223,101.13333333333334,0)" xlink:href="#Q"/></g><path fill="#333" d="M647-729L397 0H270L24-729h151l162 549 159-549h151" id="aF"/><g id="D"><use transform="matrix(0.02,0,0,0.02,0,0)" xlink:href="#aF"/><use transform="matrix(0.02,0,0,0.02,13.34,0)" xlink:href="#ad"/><use transform="matrix(0.02,0,0,0.02,18.9,0)" xlink:href="#Y"/><use transform="matrix(0.02,0,0,0.02,27.080000000000002,0)" xlink:href="#R"/><use transform="matrix(0.02,0,0,0.02,33.739999999999995,0)" xlink:href="#ay"/><use transform="matrix(0.02,0,0,0.02,45.959999999999994,0)" xlink:href="#ai"/><use transform="matrix(0.02,0,0,0.02,57.08,0)" xlink:href="#af"/></g><g id="E"><use transform="matrix(0.02,0,0,0.02,0,0)" xlink:href="#ax"/><use transform="matrix(0.02,0,0,0.02,14.139999999999999,0)" xlink:href="#ak"/><use transform="matrix(0.02,0,0,0.02,26.36,0)" xlink:href="#ak"/><use transform="matrix(0.02,0,0,0.02,38.58,0)" xlink:href="#Y"/><use transform="matrix(0.02,0,0,0.02,46.46,0)" xlink:href="#Q"/><use transform="matrix(0.02,0,0,0.02,57.58,0)" xlink:href="#ah"/><use transform="matrix(0.02,0,0,0.02,68.7,0)" xlink:href="#ah"/></g><g id="F"><use transform="matrix(0.017777777777777778,0,0,0.017777777777777778,0,0)" xlink:href="#ak"/><use transform="matrix(0.017777777777777778,0,0,0.017777777777777778,10.862222222222222,0)" xlink:href="#ai"/><use transform="matrix(0.017777777777777778,0,0,0.017777777777777778,20.746666666666666,0)" xlink:href="#R"/><use transform="matrix(0.017777777777777778,0,0,0.017777777777777778,26.755555555555553,0)" xlink:href="#ai"/><use transform="matrix(0.017777777777777778,0,0,0.017777777777777778,36.64,0)" xlink:href="#aq"/><use transform="matrix(0.017777777777777778,0,0,0.017777777777777778,46.52444444444444,0)" xlink:href="#Y"/><use transform="matrix(0.017777777777777778,0,0,0.017777777777777778,53.528888888888886,0)" xlink:href="#Q"/><use transform="matrix(0.017777777777777778,0,0,0.017777777777777778,63.41333333333333,0)" xlink:href="#ai"/><use transform="matrix(0.017777777777777778,0,0,0.017777777777777778,73.29777777777777,0)" xlink:href="#ak"/><use transform="matrix(0.017777777777777778,0,0,0.017777777777777778,84.16,0)" xlink:href="#aq"/><use transform="matrix(0.017777777777777778,0,0,0.017777777777777778,94.04444444444445,0)" xlink:href="#ak"/><use transform="matrix(0.017777777777777778,0,0,0.017777777777777778,104.90666666666667,0)" xlink:href="#Q"/><use transform="matrix(0.017777777777777778,0,0,0.017777777777777778,114.7911111111111,0)" xlink:href="#af"/><use transform="matrix(0.017777777777777778,0,0,0.017777777777777778,119.73333333333333,0)" xlink:href="#ai"/><use transform="matrix(0.017777777777777778,0,0,0.017777777777777778,129.35111111111112,0)" xlink:href="#Z"/><use transform="matrix(0.017777777777777778,0,0,0.017777777777777778,139.23555555555558,0)" xlink:href="#ar"/><use transform="matrix(0.017777777777777778,0,0,0.017777777777777778,145.15555555555557,0)" xlink:href="#as"/></g><path fill="#333" d="M766-540L613 0H468l-81-381L301 0H157L5-540h145l86 378 82-378h140l81 378 82-378h145" id="aG"/><g id="G"><use transform="matrix(0.017777777777777778,0,0,0.017777777777777778,0,0)" xlink:href="#ak"/><use transform="matrix(0.017777777777777778,0,0,0.017777777777777778,10.862222222222222,0)" xlink:href="#ai"/><use transform="matrix(0.017777777777777778,0,0,0.017777777777777778,20.746666666666666,0)" xlink:href="#R"/><use transform="matrix(0.017777777777777778,0,0,0.017777777777777778,26.755555555555553,0)" xlink:href="#ai"/><use transform="matrix(0.017777777777777778,0,0,0.017777777777777778,36.64,0)" xlink:href="#aq"/><use transform="matrix(0.017777777777777778,0,0,0.017777777777777778,46.52444444444444,0)" xlink:href="#aG"/><use transform="matrix(0.017777777777777778,0,0,0.017777777777777778,60.355555555555554,0)" xlink:href="#Y"/><use transform="matrix(0.017777777777777778,0,0,0.017777777777777778,67.27111111111111,0)" xlink:href="#ad"/><use transform="matrix(0.017777777777777778,0,0,0.017777777777777778,72.21333333333334,0)" xlink:href="#R"/><use transform="matrix(0.017777777777777778,0,0,0.017777777777777778,78.04444444444445,0)" xlink:href="#Q"/><use transform="matrix(0.017777777777777778,0,0,0.017777777777777778,87.92888888888889,0)" xlink:href="#aq"/><use transform="matrix(0.017777777777777778,0,0,0.017777777777777778,97.81333333333333,0)" xlink:href="#ak"/><use transform="matrix(0.017777777777777778,0,0,0.017777777777777778,108.67555555555556,0)" xlink:href="#Q"/><use transform="matrix(0.017777777777777778,0,0,0.017777777777777778,118.55999999999999,0)" xlink:href="#af"/><use transform="matrix(0.017777777777777778,0,0,0.017777777777777778,123.50222222222222,0)" xlink:href="#ai"/><use transform="matrix(0.017777777777777778,0,0,0.017777777777777778,133.12,0)" xlink:href="#Z"/><use transform="matrix(0.017777777777777778,0,0,0.017777777777777778,143.00444444444446,0)" xlink:href="#ar"/><use transform="matrix(0.017777777777777778,0,0,0.017777777777777778,148.92444444444445,0)" xlink:href="#as"/></g><g id="H"><use transform="matrix(0.022222222222222223,0,0,0.022222222222222223,0,0)" xlink:href="#av"/><use transform="matrix(0.022222222222222223,0,0,0.022222222222222223,16.044444444444444,0)" xlink:href="#au"/></g><g id="I"><use transform="matrix(0.02,0,0,0.02,0,0)" xlink:href="#V"/><use transform="matrix(0.02,0,0,0.02,16.66,0)" xlink:href="#ad"/><use transform="matrix(0.02,0,0,0.02,22.22,0)" xlink:href="#ah"/><use transform="matrix(0.02,0,0,0.02,33.34,0)" xlink:href="#ah"/></g><g id="J"><use transform="matrix(0.02,0,0,0.02,0,0)" xlink:href="#am"/><use transform="matrix(0.02,0,0,0.02,12.22,0)" xlink:href="#ap"/><use transform="matrix(0.02,0,0,0.02,23.340000000000003,0)" xlink:href="#aE"/><use transform="matrix(0.02,0,0,0.02,30.000000000000004,0)" xlink:href="#am"/><use transform="matrix(0.02,0,0,0.02,42.22000000000001,0)" xlink:href="#ai"/><use transform="matrix(0.02,0,0,0.02,53.34,0)" xlink:href="#R"/><use transform="matrix(0.02,0,0,0.02,59.9,0)" xlink:href="#Q"/><use transform="matrix(0.02,0,0,0.02,71.02000000000001,0)" xlink:href="#ag"/><use transform="matrix(0.02,0,0,0.02,83.24,0)" xlink:href="#S"/><use transform="matrix(0.02,0,0,0.02,94.36000000000001,0)" xlink:href="#Z"/></g><path fill="#333" d="M378 0H238v-489H68v-93c122 0 195-43 217-127h93V0" id="aH"/><g id="K"><use transform="matrix(0.02,0,0,0.02,0,0)" xlink:href="#am"/><use transform="matrix(0.02,0,0,0.02,12.22,0)" xlink:href="#aH"/><use transform="matrix(0.02,0,0,0.02,23.340000000000003,0)" xlink:href="#aE"/><use transform="matrix(0.02,0,0,0.02,30.000000000000004,0)" xlink:href="#am"/><use transform="matrix(0.02,0,0,0.02,42.22000000000001,0)" xlink:href="#ai"/><use transform="matrix(0.02,0,0,0.02,53.34,0)" xlink:href="#R"/><use transform="matrix(0.02,0,0,0.02,59.9,0)" xlink:href="#Q"/><use transform="matrix(0.02,0,0,0.02,71.02000000000001,0)" xlink:href="#ag"/><use transform="matrix(0.02,0,0,0.02,83.24,0)" xlink:href="#S"/><use transform="matrix(0.02,0,0,0.02,94.36000000000001,0)" xlink:href="#Z"/></g><path fill="#333" d="M657 0H507v-331H218V0H68v-729h150v273h289v-273h150V0" id="aI"/><g id="L"><use transform="matrix(0.02,0,0,0.02,0,0)" xlink:href="#aI"/><use transform="matrix(0.02,0,0,0.02,14.44,0)" xlink:href="#ad"/><use transform="matrix(0.02,0,0,0.02,20,0)" xlink:href="#R"/></g><g id="M"><use transform="matrix(0.02,0,0,0.02,0,0)" xlink:href="#ab"/><use transform="matrix(0.02,0,0,0.02,13.34,0)" xlink:href="#T"/><use transform="matrix(0.02,0,0,0.02,25.16,0)" xlink:href="#Z"/><use transform="matrix(0.02,0,0,0.02,35.980000000000004,0)" xlink:href="#ah"/><use transform="matrix(0.02,0,0,0.02,47.10000000000001,0)" xlink:href="#ad"/><use transform="matrix(0.02,0,0,0.02,52.66000000000001,0)" xlink:href="#S"/><use transform="matrix(0.02,0,0,0.02,63.78000000000002,0)" xlink:href="#ai"/><use transform="matrix(0.02,0,0,0.02,74.90000000000002,0)" xlink:href="#af"/></g><g id="N"><use transform="matrix(0.02,0,0,0.02,0,0)" xlink:href="#ai"/><use transform="matrix(0.02,0,0,0.02,11.120000000000001,0)" xlink:href="#ak"/><use transform="matrix(0.02,0,0,0.02,23.340000000000003,0)" xlink:href="#ak"/><use transform="matrix(0.02,0,0,0.02,35.56,0)" xlink:href="#Y"/><use transform="matrix(0.02,0,0,0.02,43.44,0)" xlink:href="#Q"/><use transform="matrix(0.02,0,0,0.02,54.56,0)" xlink:href="#ah"/><use transform="matrix(0.02,0,0,0.02,65.68,0)" xlink:href="#ah"/></g><g id="O"><use transform="matrix(0.02,0,0,0.02,0,0)" xlink:href="#am"/><use transform="matrix(0.02,0,0,0.02,12.22,0)" xlink:href="#ai"/><use transform="matrix(0.02,0,0,0.02,23.340000000000003,0)" xlink:href="#R"/><use transform="matrix(0.02,0,0,0.02,29.900000000000002,0)" xlink:href="#Q"/><use transform="matrix(0.02,0,0,0.02,41.02,0)" xlink:href="#ag"/><use transform="matrix(0.02,0,0,0.02,53.24,0)" xlink:href="#S"/><use transform="matrix(0.02,0,0,0.02,64.36,0)" xlink:href="#Z"/></g></defs></g></svg>