<svg xmlns="http://www.w3.org/2000/svg" xmlns:xlink="http://www.w3.org/1999/xlink" xmlns:lucid="lucid" width="1283.84" height="837.5"><g transform="translate(-262.87 -280)" lucid:page-tab-id="0_0"><path d="M300 705c0-2.76 2.24-5 5-5h130c2.76 0 5 2.24 5 5v70c0 2.76-2.24 5-5 5H305c-2.76 0-5-2.24-5-5z" stroke="#333" stroke-width="3" fill="#fff"/><use xlink:href="#a" transform="matrix(1,0,0,1,312,712) translate(8.722222222222214 34.92222222222222)"/><use xlink:href="#b" transform="matrix(1,0,0,1,312,712) translate(73.94444444444444 34.92222222222222)"/><path d="M460 665c0-2.76 2.24-5 5-5h10c2.76 0 5 2.24 5 5v150c0 2.76-2.24 5-5 5h-10c-2.76 0-5-2.24-5-5z" stroke="#000" stroke-width="3" fill="#fff"/><path d="M462 660v160m16-160v160" stroke="#000" stroke-width="3" fill="none"/><path d="M500 705c0-2.76 2.24-5 5-5h130c2.76 0 5 2.24 5 5v70c0 2.76-2.24 5-5 5H505c-2.76 0-5-2.24-5-5z" stroke="#333" stroke-width="3" fill="#fff"/><use xlink:href="#c" transform="matrix(1,0,0,1,512,712) translate(17.866666666666667 34.92222222222222)"/><path d="M660 665c0-2.76 2.24-5 5-5h10c2.76 0 5 2.24 5 5v150c0 2.76-2.24 5-5 5h-10c-2.76 0-5-2.24-5-5z" stroke="#000" stroke-width="3" fill="#fff"/><path d="M662 660v160m16-160v160" stroke="#000" stroke-width="3" fill="none"/><path d="M1324.8 845c0-2.76 2.23-5 5-5h115.14c2.76 0 5 2.24 5 5v70c0 2.76-2.24 5-5 5H1329.8c-2.77 0-5-2.24-5-5z" stroke="#333" stroke-width="3" fill="#fff"/><use xlink:href="#d" transform="matrix(1,0,0,1,1336.7897053240958,852) translate(4.088888888888889 34.92222222222222)"/><use xlink:href="#e" transform="matrix(1,0,0,1,1336.7897053240958,852) translate(54.71111111111111 34.92222222222222)"/><path d="M500 305c0-2.76 2.24-5 5-5h130c2.76 0 5 2.24 5 5v70c0 2.76-2.24 5-5 5H505c-2.76 0-5-2.24-5-5z" stroke="#333" stroke-width="3" fill="#fff"/><use xlink:href="#f" transform="matrix(1,0,0,1,512,312) translate(34.544444444444444 34.92222222222222)"/><path d="M371.5 697h-3V382.6h3zM497 341.5H382.1l-2.82.37-2.5 1.04-2.2 1.68-1.67 2.2-1.03 2.5-.37 2.82v10.5h-3v-10.7l.45-3.4 1.34-3.25 2.15-2.8 2.8-2.16 3.25-1.35 3.4-.45H497z" fill="#333"/><path d="M371.5 698.5h-3v-1.54h3zM498.5 341.5h-1.54v-3h1.54z" fill="#333"/><use xlink:href="#g" transform="matrix(1,0,0,1,278.87,362.59667137282355) translate(0.0049999999999954525 15.68)"/><use xlink:href="#h" transform="matrix(1,0,0,1,278.87,362.59667137282355) translate(5.564999999999996 15.68)"/><use xlink:href="#i" transform="matrix(1,0,0,1,278.87,362.59667137282355) translate(73.36500000000001 15.68)"/><use xlink:href="#j" transform="matrix(1,0,0,1,278.87,362.59667137282355) translate(134.685 15.68)"/><path d="M371.5 806.3h-3V783h3z" fill="#333"/><path d="M371.5 783.04h-3v-1.54h3zM370 835.15l-2.88-8.86h5.76z" fill="#333"/><path d="M370 840l-4.46-13.7h3.16l1.3 4 1.3-4h3.16z" fill="#333"/><use xlink:href="#k" transform="matrix(1,0,0,1,291.03,806.2853961196154) translate(0.0049999999999954525 15.68)"/><use xlink:href="#l" transform="matrix(1,0,0,1,291.03,806.2853961196154) translate(22.244999999999997 15.68)"/><use xlink:href="#m" transform="matrix(1,0,0,1,291.03,806.2853961196154) translate(82.36500000000001 15.68)"/><use xlink:href="#n" transform="matrix(1,0,0,1,291.03,806.2853961196154) translate(112.36500000000001 15.68)"/><path d="M1388.86 959.38h-3v-5.04h3zm0-25.04h-3V923h3z" fill="#333"/><path d="M1388.86 923.04h-3v-1.54h3zM1387.36 975.14l-4.63-14.26h9.27z" fill="#333"/><path d="M1387.36 980l-6.7-20.62h13.4zm-2.57-17.62l2.56 7.9 2.58-7.9z" fill="#333"/><use xlink:href="#o" transform="matrix(1,0,0,1,1303.9543648571696,934.3352870625762) translate(0.0049999999999954525 15.68)"/><use xlink:href="#l" transform="matrix(1,0,0,1,1303.9543648571696,934.3352870625762) translate(31.125 15.68)"/><use xlink:href="#m" transform="matrix(1,0,0,1,1303.9543648571696,934.3352870625762) translate(91.245 15.68)"/><use xlink:href="#n" transform="matrix(1,0,0,1,1303.9543648571696,934.3352870625762) translate(121.245 15.68)"/><path d="M700 705c0-2.76 2.24-5 5-5h130c2.76 0 5 2.24 5 5v70c0 2.76-2.24 5-5 5H705c-2.76 0-5-2.24-5-5z" stroke="#333" stroke-width="3" fill="#fff"/><use xlink:href="#p" transform="matrix(1,0,0,1,712,712) translate(11.68888888888889 24.42222222222222)"/><use xlink:href="#q" transform="matrix(1,0,0,1,712,712) translate(11.077777777777776 46.644444444444446)"/><path d="M860 665c0-2.76 2.24-5 5-5h10c2.76 0 5 2.24 5 5v150c0 2.76-2.24 5-5 5h-10c-2.76 0-5-2.24-5-5z" stroke="#000" stroke-width="3" fill="#fff"/><path d="M862 660v160m16-160v160" stroke="#000" stroke-width="3" fill="none"/><path d="M1060 665c0-2.76 2.24-5 5-5h10c2.76 0 5 2.24 5 5v150c0 2.76-2.24 5-5 5h-10c-2.76 0-5-2.24-5-5z" stroke="#000" stroke-width="3" fill="#fff"/><path d="M1062 660v160m16-160v160" stroke="#000" stroke-width="3" fill="none"/><path d="M1083 740h26.72c3.3 0 6-2.7 6-6V626c0-3.3 2.7-6 6-6h7.6" stroke="#5e5e5e" stroke-width="3" fill="none"/><path d="M1083.04 741.5h-1.54v-3h1.54z" fill="#5e5e5e"/><path d="M1145.08 620l-14.26 4.64v-9.28z" stroke="#5e5e5e" stroke-width="3" fill="#5e5e5e"/><path d="M900 705c0-2.76 2.24-5 5-5h130c2.76 0 5 2.24 5 5v70c0 2.76-2.24 5-5 5H905c-2.76 0-5-2.24-5-5z" stroke="#333" stroke-width="3" fill="#fff"/><use xlink:href="#r" transform="matrix(1,0,0,1,912,712) translate(29.58888888888889 34.92222222222222)"/><path d="M1151.44 845c0-2.76 2.24-5 5-5h130c2.76 0 5 2.24 5 5v70c0 2.76-2.24 5-5 5h-130c-2.76 0-5-2.24-5-5z" stroke="#333" stroke-width="3" fill="#fff"/><use xlink:href="#s" transform="matrix(1,0,0,1,1163.439024390243,852) translate(0.02222222222221859 24.42222222222222)"/><use xlink:href="#t" transform="matrix(1,0,0,1,1163.439024390243,852) translate(23.422222222222224 46.644444444444446)"/><path d="M1294.44 880h8.23" stroke="#5e5e5e" stroke-width="3" fill="none"/><path d="M1294.48 881.5h-1.54v-3h1.54z" fill="#5e5e5e"/><path d="M1318.44 880l-14.27 4.64v-9.28z" stroke="#5e5e5e" stroke-width="3" fill="#5e5e5e"/><path d="M1083 740h26.72c3.3 0 6 2.7 6 6v128c0 3.3 2.7 6 6 6h7.6" stroke="#5e5e5e" stroke-width="3" fill="none"/><path d="M1083.04 741.5h-1.54v-3h1.54z" fill="#5e5e5e"/><path d="M1145.08 880l-14.26 4.64v-9.28z" stroke="#5e5e5e" stroke-width="3" fill="#5e5e5e"/><path d="M1151.44 1005c0-2.76 2.24-5 5-5H1447c2.75 0 5 2.24 5 5v50c0 2.76-2.25 5-5 5h-290.56c-2.76 0-5-2.24-5-5z" stroke="#333" stroke-width="3" fill="#fff"/><use xlink:href="#u" transform="matrix(1,0,0,1,1163.439024390243,1012) translate(59.93333333333334 24.17222222222222)"/><use xlink:href="#v" transform="matrix(1,0,0,1,1163.439024390243,1012) translate(151.31111111111113 24.17222222222222)"/><path d="M1083 740h26.72c3.3 0 6 2.7 6 6v278c0 3.3 2.7 6 6 6h7.6" stroke="#5e5e5e" stroke-width="3" fill="none"/><path d="M1083.04 741.5h-1.54v-3h1.54z" fill="#5e5e5e"/><path d="M1145.08 1030l-14.26 4.64v-9.28z" stroke="#5e5e5e" stroke-width="3" fill="#5e5e5e"/><path d="M1495 1024.2l-.98 3.6-2.72 2.72-3.6.98h-13.6v-3h13.2l2.44-.66 1.6-1.6.65-2.44v-30.04h3zm-3.7-404.72l2.72 2.7.97 3.62v347.96h-3V626.2l-.67-2.45-1.6-1.6-2.44-.65h-34.36v-3h34.75z" fill="#5e5e5e"/><path d="M1452.98 621.5h-1.54v-3h1.54zM1472.6 1034.64l-14.25-4.64 14.26-4.64z" fill="#5e5e5e"/><path d="M1474.1 1036.7l-20.6-6.7 20.6-6.7zm-10.9-6.7l7.9 2.57v-5.14zM1495 1024.2l-.98 3.6-2.72 2.72-3.6.98h-13.6v-3h13.2l2.44-.66 1.6-1.6.65-2.44v-30.04h3zm-3.7-144.72l2.72 2.7.97 3.62v87.96h-3V886.2l-.67-2.45-1.6-1.6-2.44-.65h-34.36v-3h34.75z" fill="#5e5e5e"/><path d="M1452.98 881.5h-1.54v-3h1.54zM1472.6 1034.64l-14.25-4.64 14.26-4.64z" fill="#5e5e5e"/><path d="M1474.1 1036.7l-20.6-6.7 20.6-6.7zm-10.9-6.7l7.9 2.57v-5.14z" fill="#5e5e5e"/><use xlink:href="#w" transform="matrix(1,0,0,1,1456.272526390243,973.7597157875654) translate(0 15.68)"/><path d="M971.5 1095.3l.66 2.45 1.6 1.6 2.44.65h319.32l2.45-.66 1.58-1.6.67-2.44V1063h3v32.7l-.98 3.6-2.72 2.72-3.6.98H975.8l-3.6-.98-2.72-2.7-.98-3.62V965.18h3zm0-150.12h-3V802.12h3z" fill="#5e5e5e"/><path d="M1303.22 1063.04h-3v-1.54h3zM974.64 800.62h-9.28l4.64-14.27z" fill="#5e5e5e"/><path d="M976.7 802.12h-13.4l6.7-20.62zm-9.27-3h5.14l-2.57-7.9z" fill="#5e5e5e"/><use xlink:href="#x" transform="matrix(1,0,0,1,880.99,945.1837476503673) translate(0 15.68)"/><use xlink:href="#y" transform="matrix(1,0,0,1,880.99,945.1837476503673) translate(84.56 15.68)"/><path d="M1294.44 880h8.23" stroke="#5e5e5e" stroke-width="3" fill="none"/><path d="M1294.48 881.5h-1.54v-3h1.54z" fill="#5e5e5e"/><path d="M1318.44 880l-14.27 4.64v-9.28z" stroke="#5e5e5e" stroke-width="3" fill="#5e5e5e"/><path d="M1151.44 445c0-2.76 2.24-5 5-5h288.5c2.76 0 5 2.24 5 5v350c0 2.76-2.24 5-5 5h-288.5c-2.76 0-5-2.24-5-5z" stroke="#5e5e5e" stroke-width="3" fill="#fff"/><use xlink:href="#z" transform="matrix(1,0,0,1,1163.439024390243,452) translate(41.99555555555557 334.4517916444444)"/><use xlink:href="#A" transform="matrix(1,0,0,1,1163.439024390243,452) translate(171.7711111111111 334.4517916444444)"/><path d="M1172.93 465c0-2.76 2.23-5 5-5h245.52c2.76 0 5 2.24 5 5v30c0 2.76-2.24 5-5 5h-245.52c-2.77 0-5-2.24-5-5z" stroke="#333" stroke-width="3" fill="#fff"/><use xlink:href="#B" transform="matrix(1,0,0,1,1184.9263784758464,472) translate(18.040000000000035 17.42222222222222)"/><use xlink:href="#C" transform="matrix(1,0,0,1,1184.9263784758464,472) translate(111.4177777777778 17.42222222222222)"/><use xlink:href="#D" transform="matrix(1,0,0,1,1184.9263784758464,472) translate(177.6688888888889 17.42222222222222)"/><path d="M1172.93 525c0-2.76 2.23-5 5-5h245.52c2.76 0 5 2.24 5 5v30c0 2.76-2.24 5-5 5h-245.52c-2.77 0-5-2.24-5-5z" stroke="#333" stroke-width="3" fill="#fff"/><use xlink:href="#E" transform="matrix(1,0,0,1,1184.9263784758464,532) translate(70.88888888888889 17.42222222222222)"/><path d="M1172.93 585c0-2.76 2.23-5 5-5h245.52c2.76 0 5 2.24 5 5v30c0 2.76-2.24 5-5 5h-245.52c-2.77 0-5-2.24-5-5z" stroke="#333" stroke-width="3" fill="#fff"/><use xlink:href="#F" transform="matrix(1,0,0,1,1184.9263784758464,592) translate(76.43333333333334 17.42222222222222)"/><path d="M1172.93 645c0-2.76 2.23-5 5-5h245.52c2.76 0 5 2.24 5 5v30c0 2.76-2.24 5-5 5h-245.52c-2.77 0-5-2.24-5-5z" stroke="#333" stroke-width="3" fill="#fff"/><g><use xlink:href="#G" transform="matrix(1,0,0,1,1184.9263784758464,652) translate(67.52222222222223 17.42222222222222)"/></g><path d="M1172.93 705c0-2.76 2.23-5 5-5h82.9c2.78 0 5 2.24 5 5v30c0 2.76-2.22 5-5 5h-82.9c-2.77 0-5-2.24-5-5z" stroke="#333" stroke-width="3" fill="#fff"/><g><use xlink:href="#H" transform="matrix(1,0,0,1,1184.9263784758464,712) translate(0.5 17.42222222222222)"/></g><path d="M1335.53 705c0-2.76 2.24-5 5-5h82.92c2.76 0 5 2.24 5 5v30c0 2.76-2.24 5-5 5h-82.92c-2.76 0-5-2.24-5-5z" stroke="#333" stroke-width="3" fill="#fff"/><g><use xlink:href="#I" transform="matrix(1,0,0,1,1347.533382366897,712) translate(-1.3444444444444485 17.42222222222222)"/></g><path d="M1268.84 720h44.57" stroke="#333" stroke-width="3" fill="none"/><path d="M1268.88 721.5h-1.54v-3h1.54z" fill="#333"/><path d="M1329.18 720l-14.27 4.64v-9.28z" stroke="#333" stroke-width="3" fill="#333"/><path d="M405.9 677.88h-3v-4.47h3zm0-10.43h-3v-8.95h3zm0-14.9h-3v-8.95h3zm0-14.9h-3v-8.96h3zm0-14.92h-3v-8.94h3zm0-14.9h-3v-8.94h3zm0-14.9h-3v-8.95h3zm0-14.9h-3v-8.95h3zm0-14.92h-3v-8.93h3zm0-14.9h-3v-8.93h3zm0-14.9h-3v-8.94h3zm0-14.9h-3v-8.94h3zm0-14.9h-3v-8.95h3zm0-14.9h-3v-8.95h3zm0-14.9h-3v-8.96h3zm0-14.92h-3v-8.94h3zm896.3-1.78h-3v-4.88h3zm0-11.38h-3v-9.75h3zm-896.3-1.74h-3v-8.95h3zm892.6-25.9l2.7 2.7 1 3.62v5.07h-3v-4.67l-.67-2.45-1.6-1.6-2.44-.65h-4.3v-3h4.7zM414.9 420h-4.3l-2.44.66-1.58 1.6-.67 2.44v4.27h-3v-4.67l1-3.6 2.7-2.72 3.62-.98h4.7zm869.3 0h-9v-3h9zm-15 0h-8.98v-3h9zm-14.98 0h-9v-3h9zm-15 0h-8.98v-3h9zm-14.97 0h-9v-3h9zm-15 0h-8.98v-3h9zm-14.98 0h-9v-3h9zm-15 0h-8.98v-3h8.98zm-14.97 0h-9v-3h9zm-15 0h-8.98v-3h9zm-14.98 0h-9v-3h9zm-15 0h-8.98v-3h9zm-14.97 0h-9v-3h9zm-15 0h-9v-3h9zm-14.98 0h-9v-3h9zm-15 0h-8.98v-3h8.98zm-14.98 0h-9v-3h9zm-15 0h-9v-3h9zm-14.98 0h-9v-3h9zm-15 0h-8.98v-3h9zm-14.98 0h-9v-3h9zm-14.98 0h-9v-3h9zm-15 0h-8.98v-3h9zm-14.98 0h-9v-3h9zm-15 0h-8.98v-3h9zm-14.97 0h-9v-3h9zm-14.98 0h-9v-3h9zm-15 0h-8.98v-3h9zm-14.98 0h-9v-3h9zm-15 0h-8.98v-3h9zm-14.97 0h-9v-3h9zm-15 0h-8.98v-3h8.98zm-14.98 0h-9v-3h9zm-15 0h-9v-3h9zm-14.98 0h-9v-3h9zm-15 0h-8.98v-3h9zm-14.98 0h-9v-3h9zm-15 0h-8.98v-3h9zm-14.98 0h-9v-3h9zm-14.98 0h-9v-3h9zm-15 0h-8.98v-3h9zm-14.98 0h-9v-3h9zm-15 0h-8.98v-3h9zm-14.97 0h-9v-3h9zm-15 0h-8.98v-3h9zm-14.98 0h-9v-3h9zm-15 0h-8.98v-3h9zm-14.97 0h-9v-3h9zm-15 0h-8.98v-3h9zm-14.98 0h-9v-3h9zm-15 0h-8.98v-3h9zm-14.98 0h-9v-3h9zm-14.98 0h-9v-3h9zm-15 0h-8.98v-3h9zm-14.98 0h-9v-3h9zm-15 0h-8.98v-3h9zm-14.97 0h-9v-3h9zm-15 0h-9v-3h9z" fill="#5e5e5e"/><path d="M1302.2 458.5h-3v-1.54h3zM404.4 693.65l-4.62-14.27h9.27z" fill="#5e5e5e"/><path d="M404.4 698.5l-6.7-20.62h13.4zm-2.56-17.62l2.57 7.9 2.6-7.9z" fill="#5e5e5e"/><g><use xlink:href="#J" transform="matrix(1,0,0,1,707.5691150717238,394.5) translate(0.0049999999999954525 15.68)"/><use xlink:href="#K" transform="matrix(1,0,0,1,707.5691150717238,394.5) translate(74.565 15.68)"/><use xlink:href="#L" transform="matrix(1,0,0,1,707.5691150717238,394.5) translate(210.245 15.68)"/><use xlink:href="#M" transform="matrix(1,0,0,1,707.5691150717238,394.5) translate(269.045 15.68)"/><use xlink:href="#N" transform="matrix(1,0,0,1,707.5691150717238,394.5) translate(313.40500000000003 15.68)"/></g><path d="M1352.83 338.95l3.24 1.34 2.8 2.14 2.17 2.8 1.34 3.25.45 3.4V457h-3V352.1l-.37-2.82-1.04-2.5-1.68-2.2-2.18-1.67-2.5-1.03-2.83-.37H1017.7v-3h331.72zM643 341.5v-3h262.77v3z" fill="#333"/><path d="M1362.83 458.5h-3v-1.54h3zM643.04 341.5h-1.54v-3h1.54z" fill="#333"/><g><use xlink:href="#O" transform="matrix(1,0,0,1,905.7653671184926,330) translate(0.005000000000002558 15.68)"/></g><defs><path fill="#333" d="M586-604H224v165h319v125H224V0H74v-729h512v125" id="P"/><path fill="#333" d="M272-549c164-1 260 122 252 316H162c4 105 46 135 112 135 51 0 95-15 107-54h138C488-46 390 9 269 9 116 9 22-90 22-263c0-181 95-286 250-286zm107 223c-7-77-49-116-109-116-62 0-97 41-106 116h215" id="Q"/><path fill="#333" d="M301 0c-25 1-50 4-81 4C128 4 83-31 83-116v-320H14v-93h69v-145h140v145h78v93h-78v282c-5 64 29 63 78 56V0" id="R"/><path fill="#333" d="M522-187C509-72 418 9 287 9 127 9 34-88 34-266c0-184 94-283 255-283 135 0 223 79 233 211H388c-16-71-43-98-100-98-88 0-114 71-114 170 0 105 43 162 114 162 54 0 82-27 100-83h134" id="S"/><path fill="#333" d="M541 0H401v-330c0-73-36-100-86-100-63 0-108 44-108 106V0H67v-729h140v267c39-59 89-87 158-87 102 0 176 61 176 187V0" id="T"/><g id="a"><use transform="matrix(0.022222222222222223,0,0,0.022222222222222223,0,0)" xlink:href="#P"/><use transform="matrix(0.022222222222222223,0,0,0.022222222222222223,13.466666666666667,0)" xlink:href="#Q"/><use transform="matrix(0.022222222222222223,0,0,0.022222222222222223,25.711111111111112,0)" xlink:href="#R"/><use transform="matrix(0.022222222222222223,0,0,0.022222222222222223,33.111111111111114,0)" xlink:href="#S"/><use transform="matrix(0.022222222222222223,0,0,0.022222222222222223,45.46666666666667,0)" xlink:href="#T"/></g><path fill="#333" d="M303 200H203c-220-336-220-593 0-929h100C197-525 163-411 163-265c0 147 34 259 140 465" id="U"/><path fill="#333" d="M213 0H63v-729h150V0" id="V"/><path fill="#333" d="M243 21C111 12 19-75 22-207h131c3 70 34 111 90 121v-213C108-330 39-401 39-512c0-112 75-185 204-197v-54h68v54c126 7 206 86 206 211H389c0-61-27-103-78-110v201c155 43 216 102 216 212 0 130-84 206-216 216v105h-68V21zm0-448v-181c-55 11-81 41-81 92 0 44 25 71 81 89zm152 244c0-48-28-82-84-99v196c56-14 84-47 84-97" id="W"/><path fill="#333" d="M122-729c220 336 220 593 0 929H22C128-4 162-118 162-264c0-147-34-259-140-465h100" id="X"/><g id="b"><use transform="matrix(0.022222222222222223,0,0,0.022222222222222223,0,0)" xlink:href="#U"/><use transform="matrix(0.022222222222222223,0,0,0.022222222222222223,7.4,0)" xlink:href="#V"/><use transform="matrix(0.022222222222222223,0,0,0.022222222222222223,13.577777777777778,0)" xlink:href="#W"/><use transform="matrix(0.022222222222222223,0,0,0.022222222222222223,25.93333333333334,0)" xlink:href="#X"/></g><path fill="#333" d="M362-729c234-10 319 156 319 364C681-155 594 0 362 0H77v-729h285zm169 365c0-161-56-240-169-240H227v479h135c113 0 169-79 169-239" id="Y"/><path fill="#333" d="M569-266C569-93 466 9 302 9 136 9 35-92 35-270c0-177 101-279 266-279 169 0 268 100 268 283zm-140-2c0-106-50-168-127-168-76 0-127 63-127 166s51 166 127 166c75 0 127-63 127-164" id="Z"/><path fill="#333" d="M545 0H405v-62C370-16 323 9 256 9 113 9 29-116 29-269c0-163 98-280 227-280 67 0 114 25 149 79v-259h140V0zM405-267c0-103-47-165-118-165-70 0-118 63-118 163 0 99 48 161 118 161s118-61 118-159" id="aa"/><g id="c"><use transform="matrix(0.022222222222222223,0,0,0.022222222222222223,0,0)" xlink:href="#Y"/><use transform="matrix(0.022222222222222223,0,0,0.022222222222222223,16.044444444444444,0)" xlink:href="#Q"/><use transform="matrix(0.022222222222222223,0,0,0.022222222222222223,28.400000000000002,0)" xlink:href="#S"/><use transform="matrix(0.022222222222222223,0,0,0.022222222222222223,40.75555555555555,0)" xlink:href="#Z"/><use transform="matrix(0.022222222222222223,0,0,0.022222222222222223,54.33333333333333,0)" xlink:href="#aa"/><use transform="matrix(0.022222222222222223,0,0,0.022222222222222223,67.91111111111111,0)" xlink:href="#Q"/></g><path fill="#333" d="M579 0H80v-729h150v604h349V0" id="ab"/><path fill="#333" d="M633-219C633-71 522 12 334 12 148 12 32-73 32-229h146c0 78 62 121 164 121 91 0 147-32 147-93 0-59-37-80-137-100l-102-20C102-350 45-403 45-517c0-142 101-224 276-224 178 0 286 80 286 234H467c0-74-58-114-153-114-77 0-126 35-126 90 0 53 31 74 138 95l114 22c135 26 193 80 193 195" id="ac"/><path fill="#333" d="M654-246C654-74 532 12 365 12S76-74 76-246v-483h150v483c0 88 45 130 139 130s139-42 139-130v-483h150v483" id="ad"/><g id="d"><use transform="matrix(0.022222222222222223,0,0,0.022222222222222223,0,0)" xlink:href="#ab"/><use transform="matrix(0.022222222222222223,0,0,0.022222222222222223,13.577777777777778,0)" xlink:href="#ac"/><use transform="matrix(0.022222222222222223,0,0,0.022222222222222223,28.400000000000002,0)" xlink:href="#ad"/></g><g id="e"><use transform="matrix(0.022222222222222223,0,0,0.022222222222222223,0,0)" xlink:href="#U"/><use transform="matrix(0.022222222222222223,0,0,0.022222222222222223,7.4,0)" xlink:href="#Y"/><use transform="matrix(0.022222222222222223,0,0,0.022222222222222223,23.444444444444446,0)" xlink:href="#W"/><use transform="matrix(0.022222222222222223,0,0,0.022222222222222223,35.8,0)" xlink:href="#X"/></g><path fill="#333" d="M545-387C753-283 685 0 410 0H82v-729h325c152 0 238 89 238 192 0 62-28 104-100 150zm-44-134c0-111-163-78-269-83v165c105-5 269 28 269-82zm21 302c0-62-38-95-111-95H232v189h179c73 0 111-33 111-94" id="ae"/><path fill="#333" d="M633-503c0 148-86 243-220 243H226V0H76v-729h322c152 0 235 80 235 226zm-150 9c0-75-37-110-117-110H226v219h140c80 0 117-35 117-109" id="af"/><g id="f"><use transform="matrix(0.022222222222222223,0,0,0.022222222222222223,0,0)" xlink:href="#ae"/><use transform="matrix(0.022222222222222223,0,0,0.022222222222222223,16.044444444444444,0)" xlink:href="#af"/><use transform="matrix(0.022222222222222223,0,0,0.022222222222222223,30.866666666666667,0)" xlink:href="#ad"/></g><path fill="#333" d="M370-406c-99-18-167 21-167 119V0H63v-540h140v106c34-78 89-121 167-114v142" id="ag"/><path fill="#333" d="M575-263C575-100 477 9 348 9c-68 0-115-25-149-71V0H59v-729h140v259c34-54 82-79 149-79 142 0 227 133 227 286zm-140-6c0-100-49-163-118-163-70 0-118 62-118 160 0 103 47 164 118 164 69 0 118-63 118-161" id="ah"/><path fill="#333" d="M214-9c4 122-52 166-150 183v-56c60-12 87-48 86-118H64v-146h150V-9" id="ai"/><g id="h"><use transform="matrix(0.02,0,0,0.02,0,0)" xlink:href="#af"/><use transform="matrix(0.02,0,0,0.02,13.34,0)" xlink:href="#ag"/><use transform="matrix(0.02,0,0,0.02,21.12,0)" xlink:href="#Z"/><use transform="matrix(0.02,0,0,0.02,33.34,0)" xlink:href="#ah"/><use transform="matrix(0.02,0,0,0.02,45.56,0)" xlink:href="#Q"/><use transform="matrix(0.02,0,0,0.02,56.68000000000001,0)" xlink:href="#ai"/></g><path fill="#333" d="M524 0H372c-13-16-16-40-16-68C307-17 252 9 192 9 102 9 28-41 28-146c0-119 94-156 215-173 70-10 112-6 112-63 0-36-27-54-81-54-69 0-92 18-99 74H40c9-125 85-187 231-187s221 56 221 166v300c0 28 7 43 32 66V0zM244-104c79 1 117-58 111-151-15 11-75 19-107 26-58 11-80 26-80 67 0 40 29 58 76 58" id="aj"/><path fill="#333" d="M541 18c0 127-94 200-257 200-148 0-237-65-239-153h145c11 41 46 63 99 63 70 0 119-45 119-110v-80C356-10 318 9 255 9 122 9 34-96 34-264c0-167 96-285 224-285 62 0 108 28 150 92v-83h133V18zM410-266c0-100-52-166-122-166-68 0-114 64-114 166 0 98 46 158 112 158 73 0 124-60 124-158" id="ak"/><g id="i"><use transform="matrix(0.02,0,0,0.02,0,0)" xlink:href="#R"/><use transform="matrix(0.02,0,0,0.02,6.76,0)" xlink:href="#aj"/><use transform="matrix(0.02,0,0,0.02,17.880000000000003,0)" xlink:href="#ag"/><use transform="matrix(0.02,0,0,0.02,25.660000000000004,0)" xlink:href="#ak"/><use transform="matrix(0.02,0,0,0.02,38.080000000000005,0)" xlink:href="#Q"/><use transform="matrix(0.02,0,0,0.02,49.10000000000001,0)" xlink:href="#R"/></g><path fill="#333" d="M313-436h-83V0H90v-436H14v-93h76c-10-123 19-204 138-200 19 0 54 1 80 3v105c-39-7-78-7-78 39v53h83v93" id="al"/><g id="j"><use transform="matrix(0.02,0,0,0.02,0,0)" xlink:href="#al"/><use transform="matrix(0.02,0,0,0.02,6.5600000000000005,0)" xlink:href="#Q"/><use transform="matrix(0.02,0,0,0.02,17.580000000000002,0)" xlink:href="#R"/><use transform="matrix(0.02,0,0,0.02,24.240000000000002,0)" xlink:href="#S"/><use transform="matrix(0.02,0,0,0.02,35.36,0)" xlink:href="#T"/></g><g id="k"><use transform="matrix(0.02,0,0,0.02,0,0)" xlink:href="#V"/><use transform="matrix(0.02,0,0,0.02,5.5600000000000005,0)" xlink:href="#W"/></g><path fill="#333" d="M207 0H67v-729h140V0" id="am"/><path fill="#333" d="M548 0H384L255-238l-56 61V0H59v-729h140v399l177-210h159L351-336" id="an"/><g id="l"><use transform="matrix(0.02,0,0,0.02,0,0)" xlink:href="#ae"/><use transform="matrix(0.02,0,0,0.02,14.44,0)" xlink:href="#am"/><use transform="matrix(0.02,0,0,0.02,20,0)" xlink:href="#Z"/><use transform="matrix(0.02,0,0,0.02,32.22,0)" xlink:href="#S"/><use transform="matrix(0.02,0,0,0.02,43.44,0)" xlink:href="#an"/></g><path fill="#333" d="M546 0H406v-333c0-64-30-97-90-97-68 0-113 42-113 106V0H63v-540h140v78c40-60 89-87 162-87 115 0 181 68 181 187V0" id="ao"/><g id="m"><use transform="matrix(0.02,0,0,0.02,0,0)" xlink:href="#Z"/><use transform="matrix(0.02,0,0,0.02,12.22,0)" xlink:href="#ao"/></g><path fill="#333" d="M824 0H684v-360c0-43-29-70-76-70-60 0-96 40-96 106V0H372v-360c0-43-29-70-76-70-60 0-96 40-96 106V0H60v-540h139v67c46-55 86-76 148-76 67 0 121 29 147 80 42-56 90-80 158-80 108 0 172 62 172 167V0" id="ap"/><path fill="#333" d="M207 0H67v-540h140V0zm2-605H69v-140h140v140" id="aq"/><path fill="#333" d="M520-167C520-51 439 8 284 9 120 9 33-53 29-171h137c12 58 46 70 110 70 98 0 147-55 57-83l-167-52C66-267 48-303 48-369c0-111 85-180 222-180 145 0 233 69 235 183H370c-1-49-34-73-101-73-49 0-81 20-81 50 0 22 10 31 49 42l177 51c71 21 106 67 106 129" id="ar"/><g id="n"><use transform="matrix(0.02,0,0,0.02,0,0)" xlink:href="#ap"/><use transform="matrix(0.02,0,0,0.02,17.78,0)" xlink:href="#aq"/><use transform="matrix(0.02,0,0,0.02,23.340000000000003,0)" xlink:href="#ar"/><use transform="matrix(0.02,0,0,0.02,34.46000000000001,0)" xlink:href="#ar"/></g><g id="o"><use transform="matrix(0.02,0,0,0.02,0,0)" xlink:href="#Y"/><use transform="matrix(0.02,0,0,0.02,14.44,0)" xlink:href="#W"/></g><path fill="#333" d="M677 0H516c-29-36-26-130-21-202 9-126-159-77-265-87V0H80v-729h391c129 0 196 84 196 197 0 89-41 148-123 180 93 40 97 50 101 265 0 32 9 47 32 60V0zM517-511c0-63-24-93-106-93H230v190h181c85 0 106-32 106-97" id="as"/><path fill="#333" d="M291-714L85 14h-97l206-728h97" id="at"/><g id="p"><use transform="matrix(0.022222222222222223,0,0,0.022222222222222223,0,0)" xlink:href="#as"/><use transform="matrix(0.022222222222222223,0,0,0.022222222222222223,16.044444444444444,0)" xlink:href="#Q"/><use transform="matrix(0.022222222222222223,0,0,0.022222222222222223,28.400000000000002,0)" xlink:href="#ao"/><use transform="matrix(0.022222222222222223,0,0,0.022222222222222223,41.977777777777774,0)" xlink:href="#aj"/><use transform="matrix(0.022222222222222223,0,0,0.022222222222222223,54.33333333333333,0)" xlink:href="#ap"/><use transform="matrix(0.022222222222222223,0,0,0.022222222222222223,74.08888888888889,0)" xlink:href="#Q"/><use transform="matrix(0.022222222222222223,0,0,0.022222222222222223,86.44444444444444,0)" xlink:href="#at"/></g><path fill="#333" d="M574-270C574-106 478 9 348 9c-68 0-116-21-150-81v290H58v-758h140v80c34-60 82-89 150-89 141 0 226 119 226 279zm-140 2c0-103-47-164-118-164-70 0-118 61-118 162s48 162 118 162c69 0 118-62 118-160" id="au"/><g id="q"><use transform="matrix(0.022222222222222223,0,0,0.022222222222222223,0,0)" xlink:href="#Y"/><use transform="matrix(0.022222222222222223,0,0,0.022222222222222223,16.044444444444444,0)" xlink:href="#aq"/><use transform="matrix(0.022222222222222223,0,0,0.022222222222222223,22.22222222222222,0)" xlink:href="#ar"/><use transform="matrix(0.022222222222222223,0,0,0.022222222222222223,34.577777777777776,0)" xlink:href="#au"/><use transform="matrix(0.022222222222222223,0,0,0.022222222222222223,48.155555555555544,0)" xlink:href="#aj"/><use transform="matrix(0.022222222222222223,0,0,0.022222222222222223,60.511111111111106,0)" xlink:href="#R"/><use transform="matrix(0.022222222222222223,0,0,0.022222222222222223,67.91111111111111,0)" xlink:href="#S"/><use transform="matrix(0.022222222222222223,0,0,0.022222222222222223,80.26666666666667,0)" xlink:href="#T"/></g><path fill="#333" d="M541 0H401v-71C361-18 312 9 239 9 124 9 58-59 58-178v-362h140v333c0 65 30 97 90 97 68 0 113-42 113-106v-324h140V0" id="av"/><g id="r"><use transform="matrix(0.022222222222222223,0,0,0.022222222222222223,0,0)" xlink:href="#V"/><use transform="matrix(0.022222222222222223,0,0,0.022222222222222223,6.177777777777778,0)" xlink:href="#ar"/><use transform="matrix(0.022222222222222223,0,0,0.022222222222222223,18.533333333333335,0)" xlink:href="#ar"/><use transform="matrix(0.022222222222222223,0,0,0.022222222222222223,30.888888888888896,0)" xlink:href="#av"/><use transform="matrix(0.022222222222222223,0,0,0.022222222222222223,44.46666666666667,0)" xlink:href="#Q"/></g><g id="s"><use transform="matrix(0.022222222222222223,0,0,0.022222222222222223,0,0)" xlink:href="#ab"/><use transform="matrix(0.022222222222222223,0,0,0.022222222222222223,13.577777777777778,0)" xlink:href="#Z"/><use transform="matrix(0.022222222222222223,0,0,0.022222222222222223,27.155555555555555,0)" xlink:href="#aj"/><use transform="matrix(0.022222222222222223,0,0,0.022222222222222223,39.51111111111111,0)" xlink:href="#aa"/><use transform="matrix(0.022222222222222223,0,0,0.022222222222222223,53.08888888888889,0)" xlink:href="#at"/><use transform="matrix(0.022222222222222223,0,0,0.022222222222222223,59.266666666666666,0)" xlink:href="#ac"/><use transform="matrix(0.022222222222222223,0,0,0.022222222222222223,74.08888888888889,0)" xlink:href="#R"/><use transform="matrix(0.022222222222222223,0,0,0.022222222222222223,81.26666666666667,0)" xlink:href="#Z"/><use transform="matrix(0.022222222222222223,0,0,0.022222222222222223,94.84444444444445,0)" xlink:href="#ag"/><use transform="matrix(0.022222222222222223,0,0,0.022222222222222223,103.60000000000001,0)" xlink:href="#Q"/></g><path fill="#333" d="M745-38l-76 81-86-81C525-3 469 12 394 12 182 12 43-146 43-365s138-376 351-376 351 159 351 374c0 98-31 193-80 253zM595-364c0-149-79-249-201-249-121 0-201 95-201 248 0 189 129 294 288 230l-77-73 76-81 82 78c22-44 33-93 33-153" id="aw"/><g id="t"><use transform="matrix(0.022222222222222223,0,0,0.022222222222222223,0,0)" xlink:href="#aw"/><use transform="matrix(0.022222222222222223,0,0,0.022222222222222223,17.288888888888888,0)" xlink:href="#av"/><use transform="matrix(0.022222222222222223,0,0,0.022222222222222223,30.866666666666667,0)" xlink:href="#Q"/><use transform="matrix(0.022222222222222223,0,0,0.022222222222222223,43.22222222222222,0)" xlink:href="#av"/><use transform="matrix(0.022222222222222223,0,0,0.022222222222222223,56.800000000000004,0)" xlink:href="#Q"/></g><g id="u"><use transform="matrix(0.022222222222222223,0,0,0.022222222222222223,0,0)" xlink:href="#as"/><use transform="matrix(0.022222222222222223,0,0,0.022222222222222223,16.044444444444444,0)" xlink:href="#Q"/><use transform="matrix(0.022222222222222223,0,0,0.022222222222222223,28.400000000000002,0)" xlink:href="#Z"/><use transform="matrix(0.022222222222222223,0,0,0.022222222222222223,41.977777777777774,0)" xlink:href="#ag"/><use transform="matrix(0.022222222222222223,0,0,0.022222222222222223,50.62222222222223,0)" xlink:href="#aa"/><use transform="matrix(0.022222222222222223,0,0,0.022222222222222223,64.2,0)" xlink:href="#Q"/><use transform="matrix(0.022222222222222223,0,0,0.022222222222222223,76.55555555555556,0)" xlink:href="#ag"/></g><g id="v"><use transform="matrix(0.022222222222222223,0,0,0.022222222222222223,0,0)" xlink:href="#ae"/><use transform="matrix(0.022222222222222223,0,0,0.022222222222222223,16.044444444444444,0)" xlink:href="#av"/><use transform="matrix(0.022222222222222223,0,0,0.022222222222222223,29.62222222222222,0)" xlink:href="#al"/><use transform="matrix(0.022222222222222223,0,0,0.022222222222222223,37.46666666666666,0)" xlink:href="#al"/><use transform="matrix(0.022222222222222223,0,0,0.022222222222222223,44.755555555555546,0)" xlink:href="#Q"/><use transform="matrix(0.022222222222222223,0,0,0.022222222222222223,57.1111111111111,0)" xlink:href="#ag"/></g><path fill="#333" d="M685-249C676-82 555 12 374 12 171 12 44-130 44-364c0-236 128-377 334-377 164 0 291 91 304 259H539c-22-94-75-131-156-131-118 0-189 90-189 251 0 159 68 248 184 248 93 0 152-42 161-135h146" id="ax"/><g id="w"><use transform="matrix(0.02,0,0,0.02,0,0)" xlink:href="#ax"/><use transform="matrix(0.02,0,0,0.02,14.44,0)" xlink:href="#Z"/><use transform="matrix(0.02,0,0,0.02,26.66,0)" xlink:href="#ap"/><use transform="matrix(0.02,0,0,0.02,44.44,0)" xlink:href="#ap"/><use transform="matrix(0.02,0,0,0.02,62.22,0)" xlink:href="#aq"/><use transform="matrix(0.02,0,0,0.02,67.78,0)" xlink:href="#R"/></g><path fill="#333" d="M766-540L613 0H468l-81-381L301 0H157L5-540h145l86 378 82-378h140l81 378 82-378h145" id="ay"/><g id="x"><use transform="matrix(0.02,0,0,0.02,0,0)" xlink:href="#P"/><use transform="matrix(0.02,0,0,0.02,11.92,0)" xlink:href="#Z"/><use transform="matrix(0.02,0,0,0.02,24.14,0)" xlink:href="#ag"/><use transform="matrix(0.02,0,0,0.02,32.42,0)" xlink:href="#ay"/><use transform="matrix(0.02,0,0,0.02,47.88,0)" xlink:href="#aj"/><use transform="matrix(0.02,0,0,0.02,59,0)" xlink:href="#ag"/><use transform="matrix(0.02,0,0,0.02,66.78,0)" xlink:href="#aa"/></g><path fill="#333" d="M742-360c0 213-139 372-351 372C177 12 40-147 40-365c0-209 136-376 350-376 213 0 352 161 352 381zm-150-1c0-152-78-252-201-252-121 0-201 101-201 248 0 153 80 249 201 249 120 0 201-96 201-245" id="az"/><g id="y"><use transform="matrix(0.02,0,0,0.02,0,0)" xlink:href="#az"/><use transform="matrix(0.02,0,0,0.02,15.56,0)" xlink:href="#au"/><use transform="matrix(0.02,0,0,0.02,27.78,0)" xlink:href="#Q"/><use transform="matrix(0.02,0,0,0.02,38.900000000000006,0)" xlink:href="#ag"/><use transform="matrix(0.02,0,0,0.02,46.78000000000001,0)" xlink:href="#aj"/><use transform="matrix(0.02,0,0,0.02,57.9,0)" xlink:href="#ao"/><use transform="matrix(0.02,0,0,0.02,70.12,0)" xlink:href="#aa"/><use transform="matrix(0.02,0,0,0.02,82.34,0)" xlink:href="#ar"/></g><g id="z"><use transform="matrix(0.024444444444444442,0,0,0.024444444444444442,0,0)" xlink:href="#P"/><use transform="matrix(0.024444444444444442,0,0,0.024444444444444442,14.324444444444444,0)" xlink:href="#av"/><use transform="matrix(0.024444444444444442,0,0,0.024444444444444442,29.259999999999998,0)" xlink:href="#ao"/><use transform="matrix(0.024444444444444442,0,0,0.024444444444444442,44.19555555555555,0)" xlink:href="#S"/><use transform="matrix(0.024444444444444442,0,0,0.024444444444444442,57.78666666666666,0)" xlink:href="#R"/><use transform="matrix(0.024444444444444442,0,0,0.024444444444444442,65.92666666666666,0)" xlink:href="#aq"/><use transform="matrix(0.024444444444444442,0,0,0.024444444444444442,72.72222222222221,0)" xlink:href="#Z"/><use transform="matrix(0.024444444444444442,0,0,0.024444444444444442,87.65777777777777,0)" xlink:href="#ao"/><use transform="matrix(0.024444444444444442,0,0,0.024444444444444442,102.59333333333332,0)" xlink:href="#aj"/><use transform="matrix(0.024444444444444442,0,0,0.024444444444444442,116.18444444444444,0)" xlink:href="#am"/></g><g id="A"><use transform="matrix(0.024444444444444442,0,0,0.024444444444444442,0,0)" xlink:href="#ad"/><use transform="matrix(0.024444444444444442,0,0,0.024444444444444442,17.77111111111111,0)" xlink:href="#ao"/><use transform="matrix(0.024444444444444442,0,0,0.024444444444444442,32.70666666666666,0)" xlink:href="#aq"/><use transform="matrix(0.024444444444444442,0,0,0.024444444444444442,39.502222222222215,0)" xlink:href="#R"/><use transform="matrix(0.024444444444444442,0,0,0.024444444444444442,47.642222222222216,0)" xlink:href="#ar"/></g><path fill="#333" d="M661 0H511L218-504V0H68v-729h154l289 496v-496h150V0" id="aA"/><path fill="#333" d="M598-604H385V0H235v-604H14v-125h584v125" id="aB"/><path fill="#333" d="M298-207H26v-135h272v135" id="aC"/><path fill="#333" d="M703 0H549l-48-147H228L179 0H26l259-729h166zM460-272l-95-285-95 285h190" id="aD"/><g id="B"><use transform="matrix(0.022222222222222223,0,0,0.022222222222222223,0,0)" xlink:href="#V"/><use transform="matrix(0.022222222222222223,0,0,0.022222222222222223,6.177777777777778,0)" xlink:href="#aA"/><use transform="matrix(0.022222222222222223,0,0,0.022222222222222223,22.22222222222222,0)" xlink:href="#aB"/><use transform="matrix(0.022222222222222223,0,0,0.022222222222222223,34.68888888888889,0)" xlink:href="#aC"/><use transform="matrix(0.022222222222222223,0,0,0.022222222222222223,42.08888888888889,0)" xlink:href="#aD"/><use transform="matrix(0.022222222222222223,0,0,0.022222222222222223,58.13333333333333,0)" xlink:href="#ab"/><use transform="matrix(0.022222222222222223,0,0,0.022222222222222223,71.15555555555555,0)" xlink:href="#ad"/></g><path fill="#333" d="M291 212h-55C136 81 73-101 73-259c0-157 63-339 163-470h55c-182 291-181 650 0 941" id="aE"/><path fill="#333" d="M653 0H549l-75-219H193L116 0H17l260-729h120zM448-297L336-629 216-297h232" id="aF"/><path fill="#333" d="M495 0h-74v-77c-45 65-95 92-167 92C113 15 26-90 26-267c0-167 89-272 225-272 70 0 126 28 161 81v-271h83V0zm-83-260c0-121-57-201-147-201-91 0-152 77-152 199S174-63 266-63c88 0 146-76 146-197" id="aG"/><path fill="#333" d="M321-451c-129 2-168 61-168 179V0H70v-524h76v95c59-88 90-119 175-107v85" id="aH"/><path fill="#333" d="M513-238H127c2 120 67 176 154 176 67 0 114-28 137-97h84C481-53 398 15 278 15 131 15 40-87 40-259s94-280 240-280c156 0 245 109 233 301zm-90-68c5-85-61-156-144-156-84 0-143 63-150 156h294" id="aI"/><path fill="#333" d="M459-147c0 101-84 162-216 162C106 15 38-39 34-160h88c11 80 53 98 128 98 73 0 122-29 122-78 0-63-103-74-159-88C89-260 47-297 47-379c0-97 79-160 201-160 121 0 189 58 190 161h-88c-2-55-38-84-105-84-68 0-111 31-111 79 0 37 29 59 97 75l80 19c104 25 148 64 148 142" id="aJ"/><g id="C"><use transform="matrix(0.01555555555555555,0,0,0.01555555555555555,0,0)" xlink:href="#aE"/><use transform="matrix(0.01555555555555555,0,0,0.01555555555555555,5.179999999999998,0)" xlink:href="#aF"/><use transform="matrix(0.01555555555555555,0,0,0.01555555555555555,15.399999999999995,0)" xlink:href="#aG"/><use transform="matrix(0.01555555555555555,0,0,0.01555555555555555,24.048888888888882,0)" xlink:href="#aG"/><use transform="matrix(0.01555555555555555,0,0,0.01555555555555555,32.697777777777766,0)" xlink:href="#aH"/><use transform="matrix(0.01555555555555555,0,0,0.01555555555555555,37.72222222222221,0)" xlink:href="#aI"/><use transform="matrix(0.01555555555555555,0,0,0.01555555555555555,46.37111111111109,0)" xlink:href="#aJ"/><use transform="matrix(0.01555555555555555,0,0,0.01555555555555555,54.14888888888886,0)" xlink:href="#aJ"/></g><path fill="#333" d="M677-266C655-76 555 18 377 18 163 18 48-143 48-356s112-391 333-391c160 0 252 84 281 244h-95c-23-111-83-162-197-162-141 0-229 121-229 308 0 182 92 293 237 293 123 0 181-64 203-202h96" id="aK"/><path fill="#333" d="M535-2c-69 24-126 0-143-60-46 49-111 77-178 77C108 15 42-41 42-136c0-64 31-111 92-136 32-13 50-16 168-32 77-11 87-22 87-80 0-50-42-78-117-78-78 0-116 29-123 93H65c5-121 83-170 210-170 129 0 197 50 197 143v292c-2 32 28 47 63 39v63zM389-181v-78c-28 13-46 17-134 29-89 13-126 37-126 92 0 57 38 80 103 80 81 0 157-48 157-123" id="aL"/><path fill="#333" d="M151 0H68v-729h83V0" id="aM"/><path fill="#333" d="M477-180C467-60 388 15 263 15 121 15 31-88 31-257c0-174 92-282 233-282 117 0 197 63 207 191h-84c-10-73-54-114-124-114-91 0-145 74-145 205 0 124 55 195 147 195 71 0 114-34 128-118h84" id="aN"/><path fill="#333" d="M256-258c0 157-63 339-163 470H38c182-291 181-650 0-941h55c100 131 163 313 163 471" id="aO"/><g id="D"><use transform="matrix(0.01555555555555555,0,0,0.01555555555555555,0,0)" xlink:href="#aK"/><use transform="matrix(0.01555555555555555,0,0,0.01555555555555555,11.231111111111106,0)" xlink:href="#aL"/><use transform="matrix(0.01555555555555555,0,0,0.01555555555555555,19.879999999999992,0)" xlink:href="#aM"/><use transform="matrix(0.01555555555555555,0,0,0.01555555555555555,23.333333333333325,0)" xlink:href="#aN"/><use transform="matrix(0.01555555555555555,0,0,0.01555555555555555,31.1111111111111,0)" xlink:href="#aO"/></g><path fill="#333" d="M776 0H626v-568L497 0H347L216-568V0H66v-729h224l132 580 128-580h226V0" id="aP"/><g id="E"><use transform="matrix(0.022222222222222223,0,0,0.022222222222222223,0,0)" xlink:href="#V"/><use transform="matrix(0.022222222222222223,0,0,0.022222222222222223,6.177777777777778,0)" xlink:href="#aA"/><use transform="matrix(0.022222222222222223,0,0,0.022222222222222223,22.22222222222222,0)" xlink:href="#aB"/><use transform="matrix(0.022222222222222223,0,0,0.022222222222222223,34.68888888888889,0)" xlink:href="#aC"/><use transform="matrix(0.022222222222222223,0,0,0.022222222222222223,42.08888888888889,0)" xlink:href="#aP"/><use transform="matrix(0.022222222222222223,0,0,0.022222222222222223,60.6,0)" xlink:href="#ad"/><use transform="matrix(0.022222222222222223,0,0,0.022222222222222223,76.64444444444445,0)" xlink:href="#ab"/></g><path fill="#333" d="M647-729L397 0H270L24-729h151l162 549 159-549h151" id="aQ"/><g id="F"><use transform="matrix(0.022222222222222223,0,0,0.022222222222222223,0,0)" xlink:href="#V"/><use transform="matrix(0.022222222222222223,0,0,0.022222222222222223,6.177777777777778,0)" xlink:href="#aA"/><use transform="matrix(0.022222222222222223,0,0,0.022222222222222223,22.22222222222222,0)" xlink:href="#aB"/><use transform="matrix(0.022222222222222223,0,0,0.022222222222222223,34.68888888888889,0)" xlink:href="#aC"/><use transform="matrix(0.022222222222222223,0,0,0.022222222222222223,42.08888888888889,0)" xlink:href="#Y"/><use transform="matrix(0.022222222222222223,0,0,0.022222222222222223,58.13333333333333,0)" xlink:href="#V"/><use transform="matrix(0.022222222222222223,0,0,0.022222222222222223,64.31111111111112,0)" xlink:href="#aQ"/></g><g id="G"><use transform="matrix(0.022222222222222223,0,0,0.022222222222222223,0,0)" xlink:href="#P"/><use transform="matrix(0.022222222222222223,0,0,0.022222222222222223,13.577777777777778,0)" xlink:href="#af"/><use transform="matrix(0.022222222222222223,0,0,0.022222222222222223,28.400000000000002,0)" xlink:href="#ad"/><use transform="matrix(0.022222222222222223,0,0,0.022222222222222223,44.44444444444444,0)" xlink:href="#aC"/><use transform="matrix(0.022222222222222223,0,0,0.022222222222222223,51.84444444444445,0)" xlink:href="#aD"/><use transform="matrix(0.022222222222222223,0,0,0.022222222222222223,67.88888888888889,0)" xlink:href="#ab"/><use transform="matrix(0.022222222222222223,0,0,0.022222222222222223,80.91111111111111,0)" xlink:href="#ad"/></g><path fill="#333" d="M378 0H238v-489H68v-93c122 0 195-43 217-127h93V0" id="aR"/><g id="H"><use transform="matrix(0.022222222222222223,0,0,0.022222222222222223,0,0)" xlink:href="#P"/><use transform="matrix(0.022222222222222223,0,0,0.022222222222222223,13.577777777777778,0)" xlink:href="#aP"/><use transform="matrix(0.022222222222222223,0,0,0.022222222222222223,32.08888888888889,0)" xlink:href="#aD"/><use transform="matrix(0.022222222222222223,0,0,0.022222222222222223,48.24444444444445,0)" xlink:href="#aC"/><use transform="matrix(0.022222222222222223,0,0,0.022222222222222223,55.644444444444446,0)" xlink:href="#aR"/></g><g id="I"><use transform="matrix(0.022222222222222223,0,0,0.022222222222222223,0,0)" xlink:href="#P"/><use transform="matrix(0.022222222222222223,0,0,0.022222222222222223,13.577777777777778,0)" xlink:href="#aP"/><use transform="matrix(0.022222222222222223,0,0,0.022222222222222223,32.08888888888889,0)" xlink:href="#aD"/><use transform="matrix(0.022222222222222223,0,0,0.022222222222222223,48.24444444444445,0)" xlink:href="#aC"/><use transform="matrix(0.022222222222222223,0,0,0.022222222222222223,55.644444444444446,0)" xlink:href="#aA"/></g><g id="J"><use transform="matrix(0.02,0,0,0.02,0,0)" xlink:href="#ae"/><use transform="matrix(0.02,0,0,0.02,14.44,0)" xlink:href="#ag"/><use transform="matrix(0.02,0,0,0.02,22.32,0)" xlink:href="#aj"/><use transform="matrix(0.02,0,0,0.02,33.44,0)" xlink:href="#ao"/><use transform="matrix(0.02,0,0,0.02,45.660000000000004,0)" xlink:href="#S"/><use transform="matrix(0.02,0,0,0.02,56.78,0)" xlink:href="#T"/></g><g id="K"><use transform="matrix(0.02,0,0,0.02,0,0)" xlink:href="#aP"/><use transform="matrix(0.02,0,0,0.02,16.66,0)" xlink:href="#aq"/><use transform="matrix(0.02,0,0,0.02,22.22,0)" xlink:href="#ar"/><use transform="matrix(0.02,0,0,0.02,33.34,0)" xlink:href="#au"/><use transform="matrix(0.02,0,0,0.02,45.56,0)" xlink:href="#ag"/><use transform="matrix(0.02,0,0,0.02,53.44,0)" xlink:href="#Q"/><use transform="matrix(0.02,0,0,0.02,64.56,0)" xlink:href="#aa"/><use transform="matrix(0.02,0,0,0.02,76.78,0)" xlink:href="#aq"/><use transform="matrix(0.02,0,0,0.02,82.34,0)" xlink:href="#S"/><use transform="matrix(0.02,0,0,0.02,93.46000000000001,0)" xlink:href="#R"/><use transform="matrix(0.02,0,0,0.02,100.12,0)" xlink:href="#aq"/><use transform="matrix(0.02,0,0,0.02,105.68,0)" xlink:href="#Z"/><use transform="matrix(0.02,0,0,0.02,117.9,0)" xlink:href="#ao"/></g><g id="L"><use transform="matrix(0.02,0,0,0.02,0,0)" xlink:href="#al"/><use transform="matrix(0.02,0,0,0.02,6.5600000000000005,0)" xlink:href="#am"/><use transform="matrix(0.02,0,0,0.02,12.120000000000001,0)" xlink:href="#av"/><use transform="matrix(0.02,0,0,0.02,24.340000000000003,0)" xlink:href="#ar"/><use transform="matrix(0.02,0,0,0.02,35.46000000000001,0)" xlink:href="#T"/><use transform="matrix(0.02,0,0,0.02,47.68000000000001,0)" xlink:href="#ai"/></g><g id="M"><use transform="matrix(0.02,0,0,0.02,0,0)" xlink:href="#ao"/><use transform="matrix(0.02,0,0,0.02,12.22,0)" xlink:href="#Q"/><use transform="matrix(0.02,0,0,0.02,23.240000000000002,0)" xlink:href="#ay"/></g><g id="N"><use transform="matrix(0.02,0,0,0.02,0,0)" xlink:href="#R"/><use transform="matrix(0.02,0,0,0.02,6.76,0)" xlink:href="#aj"/><use transform="matrix(0.02,0,0,0.02,17.880000000000003,0)" xlink:href="#ag"/><use transform="matrix(0.02,0,0,0.02,25.660000000000004,0)" xlink:href="#ak"/><use transform="matrix(0.02,0,0,0.02,38.080000000000005,0)" xlink:href="#Q"/><use transform="matrix(0.02,0,0,0.02,49.10000000000001,0)" xlink:href="#R"/></g><g id="O"><use transform="matrix(0.02,0,0,0.02,0,0)" xlink:href="#aD"/><use transform="matrix(0.02,0,0,0.02,14.139999999999999,0)" xlink:href="#aa"/><use transform="matrix(0.02,0,0,0.02,26.36,0)" xlink:href="#aa"/><use transform="matrix(0.02,0,0,0.02,38.58,0)" xlink:href="#at"/><use transform="matrix(0.02,0,0,0.02,44.14,0)" xlink:href="#ad"/><use transform="matrix(0.02,0,0,0.02,58.68,0)" xlink:href="#au"/><use transform="matrix(0.02,0,0,0.02,70.9,0)" xlink:href="#aa"/><use transform="matrix(0.02,0,0,0.02,83.12,0)" xlink:href="#aj"/><use transform="matrix(0.02,0,0,0.02,94.24,0)" xlink:href="#R"/><use transform="matrix(0.02,0,0,0.02,100.80000000000003,0)" xlink:href="#Q"/></g></defs></g></svg>