<svg xmlns="http://www.w3.org/2000/svg" xmlns:xlink="http://www.w3.org/1999/xlink" xmlns:lucid="lucid" width="1300" height="640.89"><g transform="translate(-120 -120)" lucid:page-tab-id="7ezayB~FQlW7"><path d="M140 425c0-2.76 2.24-5 5-5h130c2.76 0 5 2.24 5 5v70c0 2.76-2.24 5-5 5H145c-2.76 0-5-2.24-5-5z" stroke="#333" stroke-width="3" fill="#fff"/><use xlink:href="#a" transform="matrix(1,0,0,1,152,432) translate(42.56666666666666 24.42222222222222)"/><use xlink:href="#b" transform="matrix(1,0,0,1,152,432) translate(4.955555555555556 46.644444444444446)"/><path d="M300 385c0-2.76 2.24-5 5-5h10c2.76 0 5 2.24 5 5v150c0 2.76-2.24 5-5 5h-10c-2.76 0-5-2.24-5-5z" stroke="#000" stroke-width="3" fill="#fff"/><path d="M302 380v160m16-160v160" stroke="#000" stroke-width="3" fill="none"/><path d="M340 425c0-2.76 2.24-5 5-5h130c2.76 0 5 2.24 5 5v70c0 2.76-2.24 5-5 5H345c-2.76 0-5-2.24-5-5z" stroke="#333" stroke-width="3" fill="#fff"/><use xlink:href="#c" transform="matrix(1,0,0,1,352,432) translate(8.722222222222214 34.92222222222222)"/><use xlink:href="#d" transform="matrix(1,0,0,1,352,432) translate(73.94444444444444 34.92222222222222)"/><path d="M500 385c0-2.76 2.24-5 5-5h10c2.76 0 5 2.24 5 5v150c0 2.76-2.24 5-5 5h-10c-2.76 0-5-2.24-5-5z" stroke="#000" stroke-width="3" fill="#fff"/><path d="M502 380v160m16-160v160" stroke="#000" stroke-width="3" fill="none"/><path d="M540 425c0-2.76 2.24-5 5-5h130c2.76 0 5 2.24 5 5v70c0 2.76-2.24 5-5 5H545c-2.76 0-5-2.24-5-5z" stroke="#333" stroke-width="3" fill="#fff"/><use xlink:href="#e" transform="matrix(1,0,0,1,552,432) translate(14.777777777777779 24.42222222222222)"/><use xlink:href="#f" transform="matrix(1,0,0,1,552,432) translate(43.18888888888889 46.644444444444446)"/><path d="M700 385c0-2.76 2.24-5 5-5h10c2.76 0 5 2.24 5 5v150c0 2.76-2.24 5-5 5h-10c-2.76 0-5-2.24-5-5z" stroke="#000" stroke-width="3" fill="#fff"/><path d="M702 380v160m16-160v160" stroke="#000" stroke-width="3" fill="none"/><path d="M1020 385c0-2.76 2.24-5 5-5h10c2.76 0 5 2.24 5 5v150c0 2.76-2.24 5-5 5h-10c-2.76 0-5-2.24-5-5z" stroke="#000" stroke-width="3" fill="#fff"/><path d="M1022 380v160m16-160v160" stroke="#000" stroke-width="3" fill="none"/><path d="M1060 425c0-2.76 2.24-5 5-5h130c2.76 0 5 2.24 5 5v70c0 2.76-2.24 5-5 5h-130c-2.76 0-5-2.24-5-5z" stroke="#333" stroke-width="3" fill="#fff"/><use xlink:href="#g" transform="matrix(1,0,0,1,1072,432) translate(15.12222222222222 24.42222222222222)"/><use xlink:href="#h" transform="matrix(1,0,0,1,1072,432) translate(36.400000000000006 46.644444444444446)"/><path d="M1220 385c0-2.76 2.24-5 5-5h10c2.76 0 5 2.24 5 5v150c0 2.76-2.24 5-5 5h-10c-2.76 0-5-2.24-5-5z" stroke="#000" stroke-width="3" fill="#fff"/><path d="M1222 380v160m16-160v160" stroke="#000" stroke-width="3" fill="none"/><path d="M1260 425c0-2.76 2.24-5 5-5h130c2.76 0 5 2.24 5 5v70c0 2.76-2.24 5-5 5h-130c-2.76 0-5-2.24-5-5z" stroke="#333" stroke-width="3" fill="#fff"/><use xlink:href="#i" transform="matrix(1,0,0,1,1272,432) translate(16.64444444444444 34.92222222222222)"/><path d="M540 145c0-2.76 2.24-5 5-5h130c2.76 0 5 2.24 5 5v70c0 2.76-2.24 5-5 5H545c-2.76 0-5-2.24-5-5z" stroke="#333" stroke-width="3" fill="#fff"/><use xlink:href="#j" transform="matrix(1,0,0,1,552,152) translate(34.544444444444444 34.92222222222222)"/><path d="M411.5 417h-3v-92.57h3zM537 181.5H422.1l-2.82.37-2.5 1.04-2.2 1.68-1.67 2.2-1.03 2.5-.37 2.82v114.55h-3V191.9l.45-3.4 1.34-3.25 2.15-2.8 2.8-2.16 3.25-1.35 3.4-.45H537z" fill="#333"/><path d="M411.5 418.5h-3v-1.54h3zM538.5 181.5h-1.54v-3h1.54z" fill="#333"/><use xlink:href="#k" transform="matrix(1,0,0,1,328.99555555555554,306.65248931952675) translate(0.0049999999999954525 13.937777777777779)"/><use xlink:href="#l" transform="matrix(1,0,0,1,328.99555555555554,306.65248931952675) translate(4.9472222222222175 13.937777777777779)"/><use xlink:href="#m" transform="matrix(1,0,0,1,328.99555555555554,306.65248931952675) translate(65.21388888888889 13.937777777777779)"/><use xlink:href="#n" transform="matrix(1,0,0,1,328.99555555555554,306.65248931952675) translate(119.72055555555556 13.937777777777779)"/><path d="M1091.84 178.95l3.24 1.34 2.8 2.14 2.16 2.8 1.35 3.25.43 3.4V417h-3V192.1l-.37-2.82-1.04-2.5-1.67-2.2-2.18-1.67-2.5-1.03-2.83-.37h-105.9v-3h106.1zM683 181.5v-3h199.85v3z" fill="#333"/><path d="M1101.83 418.5h-3v-1.54h3zM683.04 181.5h-1.54v-3h1.54z" fill="#333"/><use xlink:href="#o" transform="matrix(1,0,0,1,882.8471108904403,171.11111111111111) translate(0.005000000000002558 13.937777777777779)"/><path d="M653.82 680.54l.37 2.82 1.03 2.52 1.68 2.18 2.2 1.67 2.5 1.04 2.82.37h139.04v3H664.22l-3.4-.44-3.25-1.35-2.8-2.15-2.16-2.8-1.33-3.25-.45-3.4V522.1h3zm377.68.2l-.45 3.4-1.34 3.25-2.15 2.8-2.8 2.15-3.25 1.35-3.4.44h-64.22v-3h64.02l2.82-.37 2.5-1.04 2.2-1.67 1.67-2.18 1.03-2.52.37-2.82V543h3z" fill="#333"/><path d="M1031.5 543.04h-3v-1.54h3zM656.96 520.62h-9.27l4.62-14.27z" fill="#333"/><path d="M659.02 522.12h-13.4l6.7-20.62zm-9.27-3h5.14l-2.58-7.9z" fill="#333"/><use xlink:href="#p" transform="matrix(1,0,0,1,803.4577777777778,683.7530514189061) translate(0.0049999999999954525 13.937777777777779)"/><use xlink:href="#q" transform="matrix(1,0,0,1,803.4577777777778,683.7530514189061) translate(70.3161111111111 13.937777777777779)"/><path d="M569.57 723.9l.37 2.82 1.04 2.5 1.68 2.2 2.18 1.67 2.5 1.03 2.83.37h223.66v3H579.97l-3.4-.45-3.25-1.34-2.8-2.15-2.16-2.8-1.34-3.25-.45-3.4V522.12h3zm661.93.2l-.45 3.4-1.34 3.25-2.15 2.8-2.8 2.16-3.25 1.35-3.4.45H954.24v-3h263.66l2.82-.37 2.5-1.04 2.2-1.68 1.67-2.2 1.03-2.5.37-2.82V543h3z" fill="#333"/><path d="M1231.5 543.04h-3v-1.54h3zM572.7 520.62h-9.26l4.63-14.27z" fill="#333"/><path d="M574.77 522.12h-13.4l6.7-20.62zm-9.27-3h5.14l-2.57-7.9z" fill="#333"/><use xlink:href="#p" transform="matrix(1,0,0,1,803.8268769820456,727.1111111111111) translate(0.0049999999999954525 13.937777777777779)"/><use xlink:href="#q" transform="matrix(1,0,0,1,803.8268769820456,727.1111111111111) translate(70.3161111111111 13.937777777777779)"/><path d="M1164.85 417h-3v-6.46h3zM211.5 397.88h-3v-5.66h3zm953.35-.25h-3V384.7h3zM211.5 380.9h-3v-11.33h3zm953.35-9.1h-3v-12.93h3zM211.5 358.24h-3v-11.32h3zm953.35-12.3h-3v-12.9h3zM211.5 335.6h-3v-11.32h3zm953.35-15.48h-3v-12.9h3zm-953.35-7.16h-3v-11.33h3zm953.35-18.67h-3v-12.93h3zm-953.35-4h-3V279h3zm952.9-31.8l.45 3.4v6.56h-3v-6.36l-.37-2.82-.52-1.26 2.77-1.15zm-952-.48l-.53 1.26-.37 2.82v5.56h-3v-5.76l.45-3.4.67-1.63zm942.45-9.07l1.62.67-1.14 2.77-1.26-.53-2.82-.37h-5.86v-3h6.04zm-926.9 2.55h-5.85l-2.82.37-1.26.52-1.15-2.78 1.62-.67 3.4-.45h6.06zm905.52 0h-11.9v-3h11.9zm-23.83 0h-11.9v-3h11.9zm-23.82 0h-11.92v-3h11.92zm-23.83 0h-11.93v-3H1062zm-357.45 0h-11.92v-3h11.92zm-23.83 0H668.8v-3h11.92zm-23.83 0h-11.93v-3h11.92zm-23.84 0h-11.92v-3h11.92zm-23.83 0H597.3v-3h11.93zm-23.83 0h-11.92v-3h11.92zm-23.83 0h-11.92v-3h11.92zm-23.83 0h-11.92v-3h11.92zm-23.83 0H502v-3h11.9zm-23.82 0h-11.9v-3h11.9zm-23.83 0h-11.9v-3h11.9zm-23.83 0h-11.9v-3h11.9zm-23.83 0h-11.92v-3h11.9zm-23.84 0h-11.9v-3h11.9zm-23.83 0h-11.9v-3h11.9zm-23.83 0h-11.9v-3h11.9zm-23.83 0h-11.9v-3h11.9zm-23.82 0h-11.92v-3h11.92zm-23.83 0H263.7v-3h11.92zm-23.83 0h-11.93v-3h11.92zm786.36 0h-4.1v-3h4.1z" fill="#333"/><path d="M1164.85 418.5h-3v-1.54h3zM210 413.65l-4.64-14.27h9.28z" fill="#333"/><path d="M210 418.5l-6.7-20.62h13.4zm-2.57-17.62l2.57 7.9 2.57-7.9z" fill="#333"/><use xlink:href="#r" transform="matrix(1,0,0,1,705.9085100173434,241.11111111111111) translate(0.0049999999999954525 13.937777777777779)"/><use xlink:href="#s" transform="matrix(1,0,0,1,705.9085100173434,241.11111111111111) translate(66.28055555555555 13.937777777777779)"/><use xlink:href="#t" transform="matrix(1,0,0,1,705.9085100173434,241.11111111111111) translate(186.885 13.937777777777779)"/><use xlink:href="#u" transform="matrix(1,0,0,1,705.9085100173434,241.11111111111111) translate(239.15166666666664 13.937777777777779)"/><use xlink:href="#v" transform="matrix(1,0,0,1,705.9085100173434,241.11111111111111) translate(278.5827777777778 13.937777777777779)"/><path d="M411.5 559.38h-3v-2.3h3zm0-20.1h-3V503h3z" fill="#333"/><path d="M411.5 503.04h-3v-1.54h3zM410 575.15l-4.64-14.27h9.28z" fill="#333"/><path d="M410 580l-6.7-20.62h13.4zm-2.57-17.62l2.57 7.9 2.57-7.9z" fill="#333"/><use xlink:href="#w" transform="matrix(1,0,0,1,339.80444444444447,539.2889503485437) translate(0.0049999999999954525 13.937777777777779)"/><use xlink:href="#x" transform="matrix(1,0,0,1,339.80444444444447,539.2889503485437) translate(19.773888888888884 13.937777777777779)"/><use xlink:href="#y" transform="matrix(1,0,0,1,339.80444444444447,539.2889503485437) translate(73.21388888888887 13.937777777777779)"/><use xlink:href="#z" transform="matrix(1,0,0,1,339.80444444444447,539.2889503485437) translate(99.88055555555553 13.937777777777779)"/><path d="M1131.5 559.38h-3v-9.74h3zm0-27.52h-3V503h3z" fill="#333"/><path d="M1131.5 503.04h-3v-1.54h3zM1130 575.15l-4.64-14.27h9.28z" fill="#333"/><path d="M1130 580l-6.7-20.62h13.4zm-2.57-17.62l2.57 7.9 2.57-7.9z" fill="#333"/><use xlink:href="#A" transform="matrix(1,0,0,1,1055.8577777777778,531.8611111111111) translate(0.0049999999999954525 13.937777777777779)"/><use xlink:href="#x" transform="matrix(1,0,0,1,1055.8577777777778,531.8611111111111) translate(27.667222222222215 13.937777777777779)"/><use xlink:href="#y" transform="matrix(1,0,0,1,1055.8577777777778,531.8611111111111) translate(81.1072222222222 13.937777777777779)"/><use xlink:href="#z" transform="matrix(1,0,0,1,1055.8577777777778,531.8611111111111) translate(107.77388888888888 13.937777777777779)"/><path d="M740 295c0-2.76 2.24-5 5-5h250c2.76 0 5 2.24 5 5v330c0 2.76-2.24 5-5 5H745c-2.76 0-5-2.24-5-5z" stroke="#5e5e5e" stroke-width="3" fill="#fff"/><g><use xlink:href="#B" transform="matrix(1,0,0,1,752,302) translate(71.37222222222223 315.6846876444445)"/></g><path d="M758.72 313.9c0-2.77 2.23-5 5-5h212.56c2.77 0 5 2.23 5 5v27.77c0 2.76-2.23 5-5 5H763.72c-2.77 0-5-2.24-5-5z" stroke="#333" stroke-width="3" fill="#fff"/><g><use xlink:href="#C" transform="matrix(1,0,0,1,770.7159533073932,320.8888888888889) translate(1.5400000000000347 17.42222222222222)"/><use xlink:href="#D" transform="matrix(1,0,0,1,770.7159533073932,320.8888888888889) translate(94.9177777777778 17.42222222222222)"/><use xlink:href="#E" transform="matrix(1,0,0,1,770.7159533073932,320.8888888888889) translate(161.1688888888889 17.42222222222222)"/></g><path d="M758.72 370.56c0-2.77 2.23-5 5-5h212.56c2.77 0 5 2.23 5 5v27.77c0 2.76-2.23 5-5 5H763.72c-2.77 0-5-2.24-5-5z" stroke="#333" stroke-width="3" fill="#fff"/><g><use xlink:href="#F" transform="matrix(1,0,0,1,770.7159533073932,377.55555555555554) translate(54.388888888888886 17.42222222222222)"/></g><path d="M758.72 427.22c0-2.76 2.23-5 5-5h212.56c2.77 0 5 2.24 5 5V455c0 2.76-2.23 5-5 5H763.72c-2.77 0-5-2.24-5-5z" stroke="#333" stroke-width="3" fill="#fff"/><g><use xlink:href="#G" transform="matrix(1,0,0,1,770.7159533073932,434.22222222222223) translate(59.93333333333333 17.42222222222222)"/></g><path d="M758.72 483.9c0-2.77 2.23-5 5-5h212.56c2.77 0 5 2.23 5 5v27.77c0 2.76-2.23 5-5 5H763.72c-2.77 0-5-2.24-5-5z" stroke="#333" stroke-width="3" fill="#fff"/><g><use xlink:href="#H" transform="matrix(1,0,0,1,770.7159533073932,490.8888888888889) translate(51.022222222222226 17.42222222222222)"/></g><path d="M758.72 540.56c0-2.77 2.23-5 5-5h70.93c2.76 0 5 2.23 5 5v27.77c0 2.76-2.24 5-5 5h-70.93c-2.77 0-5-2.24-5-5z" stroke="#333" stroke-width="3" fill="#fff"/><g><use xlink:href="#I" transform="matrix(1,0,0,1,770.7159533073932,547.5555555555555) translate(-5.5 17.42222222222222)"/></g><path d="M900.35 540.56c0-2.77 2.24-5 5-5h70.93c2.77 0 5 2.23 5 5v27.77c0 2.76-2.23 5-5 5h-70.93c-2.76 0-5-2.24-5-5z" stroke="#333" stroke-width="3" fill="#fff"/><g><use xlink:href="#J" transform="matrix(1,0,0,1,912.3501945525295,547.5555555555555) translate(-7.3444444444444485 17.42222222222222)"/></g><path d="M842.65 554.44h35.58" stroke="#333" stroke-width="3" fill="none"/><path d="M842.7 555.94h-1.55v-3h1.54z" fill="#333"/><path d="M894 554.44l-14.27 4.64v-9.27z" stroke="#333" stroke-width="3" fill="#333"/><defs><path fill="#333" d="M633-503c0 148-86 243-220 243H226V0H76v-729h322c152 0 235 80 235 226zm-150 9c0-75-37-110-117-110H226v219h140c80 0 117-35 117-109" id="K"/><path fill="#333" d="M685-249C676-82 555 12 374 12 171 12 44-130 44-364c0-236 128-377 334-377 164 0 291 91 304 259H539c-22-94-75-131-156-131-118 0-189 90-189 251 0 159 68 248 184 248 93 0 152-42 161-135h146" id="L"/><g id="a"><use transform="matrix(0.022222222222222223,0,0,0.022222222222222223,0,0)" xlink:href="#K"/><use transform="matrix(0.022222222222222223,0,0,0.022222222222222223,14.822222222222223,0)" xlink:href="#L"/></g><path fill="#333" d="M711 0h-90l-18-100C547-23 481 12 383 12 186 12 42-144 42-365c0-227 143-376 353-376 176 0 298 95 316 245H570c-29-85-92-117-174-117-127 0-204 89-204 246 0 150 87 251 208 251 89 0 175-60 185-151H419v-125h292V0" id="M"/><path fill="#333" d="M272-549c164-1 260 122 252 316H162c4 105 46 135 112 135 51 0 95-15 107-54h138C488-46 390 9 269 9 116 9 22-90 22-263c0-181 95-286 250-286zm107 223c-7-77-49-116-109-116-62 0-97 41-106 116h215" id="N"/><path fill="#333" d="M546 0H406v-333c0-64-30-97-90-97-68 0-113 42-113 106V0H63v-540h140v78c40-60 89-87 162-87 115 0 181 68 181 187V0" id="O"/><path fill="#333" d="M370-406c-99-18-167 21-167 119V0H63v-540h140v106c34-78 89-121 167-114v142" id="P"/><path fill="#333" d="M524 0H372c-13-16-16-40-16-68C307-17 252 9 192 9 102 9 28-41 28-146c0-119 94-156 215-173 70-10 112-6 112-63 0-36-27-54-81-54-69 0-92 18-99 74H40c9-125 85-187 231-187s221 56 221 166v300c0 28 7 43 32 66V0zM244-104c79 1 117-58 111-151-15 11-75 19-107 26-58 11-80 26-80 67 0 40 29 58 76 58" id="Q"/><path fill="#333" d="M301 0c-25 1-50 4-81 4C128 4 83-31 83-116v-320H14v-93h69v-145h140v145h78v93h-78v282c-5 64 29 63 78 56V0" id="R"/><path fill="#333" d="M569-266C569-93 466 9 302 9 136 9 35-92 35-270c0-177 101-279 266-279 169 0 268 100 268 283zm-140-2c0-106-50-168-127-168-76 0-127 63-127 166s51 166 127 166c75 0 127-63 127-164" id="S"/><g id="b"><use transform="matrix(0.022222222222222223,0,0,0.022222222222222223,0,0)" xlink:href="#M"/><use transform="matrix(0.022222222222222223,0,0,0.022222222222222223,17.288888888888888,0)" xlink:href="#N"/><use transform="matrix(0.022222222222222223,0,0,0.022222222222222223,29.644444444444446,0)" xlink:href="#O"/><use transform="matrix(0.022222222222222223,0,0,0.022222222222222223,43.22222222222222,0)" xlink:href="#N"/><use transform="matrix(0.022222222222222223,0,0,0.022222222222222223,55.57777777777778,0)" xlink:href="#P"/><use transform="matrix(0.022222222222222223,0,0,0.022222222222222223,64.33333333333333,0)" xlink:href="#Q"/><use transform="matrix(0.022222222222222223,0,0,0.022222222222222223,76.68888888888888,0)" xlink:href="#R"/><use transform="matrix(0.022222222222222223,0,0,0.022222222222222223,83.86666666666666,0)" xlink:href="#S"/><use transform="matrix(0.022222222222222223,0,0,0.022222222222222223,97.44444444444444,0)" xlink:href="#P"/></g><path fill="#333" d="M586-604H224v165h319v125H224V0H74v-729h512v125" id="T"/><path fill="#333" d="M522-187C509-72 418 9 287 9 127 9 34-88 34-266c0-184 94-283 255-283 135 0 223 79 233 211H388c-16-71-43-98-100-98-88 0-114 71-114 170 0 105 43 162 114 162 54 0 82-27 100-83h134" id="U"/><path fill="#333" d="M541 0H401v-330c0-73-36-100-86-100-63 0-108 44-108 106V0H67v-729h140v267c39-59 89-87 158-87 102 0 176 61 176 187V0" id="V"/><g id="c"><use transform="matrix(0.022222222222222223,0,0,0.022222222222222223,0,0)" xlink:href="#T"/><use transform="matrix(0.022222222222222223,0,0,0.022222222222222223,13.466666666666667,0)" xlink:href="#N"/><use transform="matrix(0.022222222222222223,0,0,0.022222222222222223,25.711111111111112,0)" xlink:href="#R"/><use transform="matrix(0.022222222222222223,0,0,0.022222222222222223,33.111111111111114,0)" xlink:href="#U"/><use transform="matrix(0.022222222222222223,0,0,0.022222222222222223,45.46666666666667,0)" xlink:href="#V"/></g><path fill="#333" d="M303 200H203c-220-336-220-593 0-929h100C197-525 163-411 163-265c0 147 34 259 140 465" id="W"/><path fill="#333" d="M213 0H63v-729h150V0" id="X"/><path fill="#333" d="M243 21C111 12 19-75 22-207h131c3 70 34 111 90 121v-213C108-330 39-401 39-512c0-112 75-185 204-197v-54h68v54c126 7 206 86 206 211H389c0-61-27-103-78-110v201c155 43 216 102 216 212 0 130-84 206-216 216v105h-68V21zm0-448v-181c-55 11-81 41-81 92 0 44 25 71 81 89zm152 244c0-48-28-82-84-99v196c56-14 84-47 84-97" id="Y"/><path fill="#333" d="M122-729c220 336 220 593 0 929H22C128-4 162-118 162-264c0-147-34-259-140-465h100" id="Z"/><g id="d"><use transform="matrix(0.022222222222222223,0,0,0.022222222222222223,0,0)" xlink:href="#W"/><use transform="matrix(0.022222222222222223,0,0,0.022222222222222223,7.4,0)" xlink:href="#X"/><use transform="matrix(0.022222222222222223,0,0,0.022222222222222223,13.577777777777778,0)" xlink:href="#Y"/><use transform="matrix(0.022222222222222223,0,0,0.022222222222222223,25.93333333333334,0)" xlink:href="#Z"/></g><path fill="#333" d="M362-729c234-10 319 156 319 364C681-155 594 0 362 0H77v-729h285zm169 365c0-161-56-240-169-240H227v479h135c113 0 169-79 169-239" id="aa"/><path fill="#333" d="M545 0H405v-62C370-16 323 9 256 9 113 9 29-116 29-269c0-163 98-280 227-280 67 0 114 25 149 79v-259h140V0zM405-267c0-103-47-165-118-165-70 0-118 63-118 163 0 99 48 161 118 161s118-61 118-159" id="ab"/><path fill="#333" d="M291-714L85 14h-97l206-728h97" id="ac"/><g id="e"><use transform="matrix(0.022222222222222223,0,0,0.022222222222222223,0,0)" xlink:href="#aa"/><use transform="matrix(0.022222222222222223,0,0,0.022222222222222223,16.044444444444444,0)" xlink:href="#N"/><use transform="matrix(0.022222222222222223,0,0,0.022222222222222223,28.400000000000002,0)" xlink:href="#U"/><use transform="matrix(0.022222222222222223,0,0,0.022222222222222223,40.75555555555555,0)" xlink:href="#S"/><use transform="matrix(0.022222222222222223,0,0,0.022222222222222223,54.33333333333333,0)" xlink:href="#ab"/><use transform="matrix(0.022222222222222223,0,0,0.022222222222222223,67.91111111111111,0)" xlink:href="#N"/><use transform="matrix(0.022222222222222223,0,0,0.022222222222222223,80.26666666666667,0)" xlink:href="#ac"/></g><path fill="#333" d="M677 0H516c-29-36-26-130-21-202 9-126-159-77-265-87V0H80v-729h391c129 0 196 84 196 197 0 89-41 148-123 180 93 40 97 50 101 265 0 32 9 47 32 60V0zM517-511c0-63-24-93-106-93H230v190h181c85 0 106-32 106-97" id="ad"/><g id="f"><use transform="matrix(0.022222222222222223,0,0,0.022222222222222223,0,0)" xlink:href="#ad"/><use transform="matrix(0.022222222222222223,0,0,0.022222222222222223,16.044444444444444,0)" xlink:href="#T"/></g><path fill="#333" d="M776 0H626v-568L497 0H347L216-568V0H66v-729h224l132 580 128-580h226V0" id="ae"/><path fill="#333" d="M824 0H684v-360c0-43-29-70-76-70-60 0-96 40-96 106V0H372v-360c0-43-29-70-76-70-60 0-96 40-96 106V0H60v-540h139v67c46-55 86-76 148-76 67 0 121 29 147 80 42-56 90-80 158-80 108 0 172 62 172 167V0" id="af"/><path fill="#333" d="M538-540L316 99C275 219 206 226 86 215V110c67 23 125-21 124-87L9-540h154l119 393 112-393h144" id="ag"/><g id="g"><use transform="matrix(0.022222222222222223,0,0,0.022222222222222223,0,0)" xlink:href="#ae"/><use transform="matrix(0.022222222222222223,0,0,0.022222222222222223,18.511111111111113,0)" xlink:href="#N"/><use transform="matrix(0.022222222222222223,0,0,0.022222222222222223,30.866666666666667,0)" xlink:href="#af"/><use transform="matrix(0.022222222222222223,0,0,0.022222222222222223,50.62222222222223,0)" xlink:href="#S"/><use transform="matrix(0.022222222222222223,0,0,0.022222222222222223,64.2,0)" xlink:href="#P"/><use transform="matrix(0.022222222222222223,0,0,0.022222222222222223,73.4,0)" xlink:href="#ag"/></g><g id="h"><use transform="matrix(0.022222222222222223,0,0,0.022222222222222223,0,0)" xlink:href="#W"/><use transform="matrix(0.022222222222222223,0,0,0.022222222222222223,7.4,0)" xlink:href="#aa"/><use transform="matrix(0.022222222222222223,0,0,0.022222222222222223,23.444444444444446,0)" xlink:href="#Y"/><use transform="matrix(0.022222222222222223,0,0,0.022222222222222223,35.8,0)" xlink:href="#Z"/></g><path fill="#333" d="M207 0H67v-540h140V0zm2-605H69v-140h140v140" id="ah"/><g id="i"><use transform="matrix(0.022222222222222223,0,0,0.022222222222222223,0,0)" xlink:href="#L"/><use transform="matrix(0.022222222222222223,0,0,0.022222222222222223,16.044444444444444,0)" xlink:href="#S"/><use transform="matrix(0.022222222222222223,0,0,0.022222222222222223,29.62222222222222,0)" xlink:href="#af"/><use transform="matrix(0.022222222222222223,0,0,0.022222222222222223,49.37777777777778,0)" xlink:href="#af"/><use transform="matrix(0.022222222222222223,0,0,0.022222222222222223,69.13333333333334,0)" xlink:href="#ah"/><use transform="matrix(0.022222222222222223,0,0,0.022222222222222223,75.31111111111112,0)" xlink:href="#R"/></g><path fill="#333" d="M545-387C753-283 685 0 410 0H82v-729h325c152 0 238 89 238 192 0 62-28 104-100 150zm-44-134c0-111-163-78-269-83v165c105-5 269 28 269-82zm21 302c0-62-38-95-111-95H232v189h179c73 0 111-33 111-94" id="ai"/><path fill="#333" d="M654-246C654-74 532 12 365 12S76-74 76-246v-483h150v483c0 88 45 130 139 130s139-42 139-130v-483h150v483" id="aj"/><g id="j"><use transform="matrix(0.022222222222222223,0,0,0.022222222222222223,0,0)" xlink:href="#ai"/><use transform="matrix(0.022222222222222223,0,0,0.022222222222222223,16.044444444444444,0)" xlink:href="#K"/><use transform="matrix(0.022222222222222223,0,0,0.022222222222222223,30.866666666666667,0)" xlink:href="#aj"/></g><path fill="#333" d="M575-263C575-100 477 9 348 9c-68 0-115-25-149-71V0H59v-729h140v259c34-54 82-79 149-79 142 0 227 133 227 286zm-140-6c0-100-49-163-118-163-70 0-118 62-118 160 0 103 47 164 118 164 69 0 118-63 118-161" id="ak"/><path fill="#333" d="M214-9c4 122-52 166-150 183v-56c60-12 87-48 86-118H64v-146h150V-9" id="al"/><g id="l"><use transform="matrix(0.017777777777777778,0,0,0.017777777777777778,0,0)" xlink:href="#K"/><use transform="matrix(0.017777777777777778,0,0,0.017777777777777778,11.857777777777779,0)" xlink:href="#P"/><use transform="matrix(0.017777777777777778,0,0,0.017777777777777778,18.773333333333333,0)" xlink:href="#S"/><use transform="matrix(0.017777777777777778,0,0,0.017777777777777778,29.635555555555555,0)" xlink:href="#ak"/><use transform="matrix(0.017777777777777778,0,0,0.017777777777777778,40.49777777777778,0)" xlink:href="#N"/><use transform="matrix(0.017777777777777778,0,0,0.017777777777777778,50.382222222222225,0)" xlink:href="#al"/></g><path fill="#333" d="M541 18c0 127-94 200-257 200-148 0-237-65-239-153h145c11 41 46 63 99 63 70 0 119-45 119-110v-80C356-10 318 9 255 9 122 9 34-96 34-264c0-167 96-285 224-285 62 0 108 28 150 92v-83h133V18zM410-266c0-100-52-166-122-166-68 0-114 64-114 166 0 98 46 158 112 158 73 0 124-60 124-158" id="am"/><g id="m"><use transform="matrix(0.017777777777777778,0,0,0.017777777777777778,0,0)" xlink:href="#R"/><use transform="matrix(0.017777777777777778,0,0,0.017777777777777778,6.0088888888888885,0)" xlink:href="#Q"/><use transform="matrix(0.017777777777777778,0,0,0.017777777777777778,15.893333333333333,0)" xlink:href="#P"/><use transform="matrix(0.017777777777777778,0,0,0.017777777777777778,22.808888888888887,0)" xlink:href="#am"/><use transform="matrix(0.017777777777777778,0,0,0.017777777777777778,33.84888888888889,0)" xlink:href="#N"/><use transform="matrix(0.017777777777777778,0,0,0.017777777777777778,43.644444444444446,0)" xlink:href="#R"/></g><path fill="#333" d="M313-436h-83V0H90v-436H14v-93h76c-10-123 19-204 138-200 19 0 54 1 80 3v105c-39-7-78-7-78 39v53h83v93" id="an"/><g id="n"><use transform="matrix(0.017777777777777778,0,0,0.017777777777777778,0,0)" xlink:href="#an"/><use transform="matrix(0.017777777777777778,0,0,0.017777777777777778,5.831111111111111,0)" xlink:href="#N"/><use transform="matrix(0.017777777777777778,0,0,0.017777777777777778,15.626666666666667,0)" xlink:href="#R"/><use transform="matrix(0.017777777777777778,0,0,0.017777777777777778,21.546666666666667,0)" xlink:href="#U"/><use transform="matrix(0.017777777777777778,0,0,0.017777777777777778,31.43111111111111,0)" xlink:href="#V"/></g><path fill="#333" d="M703 0H549l-48-147H228L179 0H26l259-729h166zM460-272l-95-285-95 285h190" id="ao"/><path fill="#333" d="M574-270C574-106 478 9 348 9c-68 0-116-21-150-81v290H58v-758h140v80c34-60 82-89 150-89 141 0 226 119 226 279zm-140 2c0-103-47-164-118-164-70 0-118 61-118 162s48 162 118 162c69 0 118-62 118-160" id="ap"/><g id="o"><use transform="matrix(0.017777777777777778,0,0,0.017777777777777778,0,0)" xlink:href="#ao"/><use transform="matrix(0.017777777777777778,0,0,0.017777777777777778,12.568888888888887,0)" xlink:href="#ab"/><use transform="matrix(0.017777777777777778,0,0,0.017777777777777778,23.431111111111107,0)" xlink:href="#ab"/><use transform="matrix(0.017777777777777778,0,0,0.017777777777777778,34.29333333333333,0)" xlink:href="#ac"/><use transform="matrix(0.017777777777777778,0,0,0.017777777777777778,39.23555555555555,0)" xlink:href="#aj"/><use transform="matrix(0.017777777777777778,0,0,0.017777777777777778,52.16,0)" xlink:href="#ap"/><use transform="matrix(0.017777777777777778,0,0,0.017777777777777778,63.022222222222226,0)" xlink:href="#ab"/><use transform="matrix(0.017777777777777778,0,0,0.017777777777777778,73.88444444444444,0)" xlink:href="#Q"/><use transform="matrix(0.017777777777777778,0,0,0.017777777777777778,83.7688888888889,0)" xlink:href="#R"/><use transform="matrix(0.017777777777777778,0,0,0.017777777777777778,89.6,0)" xlink:href="#N"/></g><path fill="#333" d="M766-540L613 0H468l-81-381L301 0H157L5-540h145l86 378 82-378h140l81 378 82-378h145" id="aq"/><g id="p"><use transform="matrix(0.017777777777777778,0,0,0.017777777777777778,0,0)" xlink:href="#an"/><use transform="matrix(0.017777777777777778,0,0,0.017777777777777778,5.742222222222222,0)" xlink:href="#S"/><use transform="matrix(0.017777777777777778,0,0,0.017777777777777778,16.604444444444443,0)" xlink:href="#P"/><use transform="matrix(0.017777777777777778,0,0,0.017777777777777778,23.964444444444446,0)" xlink:href="#aq"/><use transform="matrix(0.017777777777777778,0,0,0.017777777777777778,37.70666666666666,0)" xlink:href="#Q"/><use transform="matrix(0.017777777777777778,0,0,0.017777777777777778,47.591111111111104,0)" xlink:href="#P"/><use transform="matrix(0.017777777777777778,0,0,0.017777777777777778,54.50666666666666,0)" xlink:href="#ab"/></g><path fill="#333" d="M520-167C520-51 439 8 284 9 120 9 33-53 29-171h137c12 58 46 70 110 70 98 0 147-55 57-83l-167-52C66-267 48-303 48-369c0-111 85-180 222-180 145 0 233 69 235 183H370c-1-49-34-73-101-73-49 0-81 20-81 50 0 22 10 31 49 42l177 51c71 21 106 67 106 129" id="ar"/><g id="q"><use transform="matrix(0.017777777777777778,0,0,0.017777777777777778,0,0)" xlink:href="#S"/><use transform="matrix(0.017777777777777778,0,0,0.017777777777777778,10.862222222222222,0)" xlink:href="#ap"/><use transform="matrix(0.017777777777777778,0,0,0.017777777777777778,21.724444444444444,0)" xlink:href="#N"/><use transform="matrix(0.017777777777777778,0,0,0.017777777777777778,31.608888888888888,0)" xlink:href="#P"/><use transform="matrix(0.017777777777777778,0,0,0.017777777777777778,38.61333333333334,0)" xlink:href="#Q"/><use transform="matrix(0.017777777777777778,0,0,0.017777777777777778,48.49777777777777,0)" xlink:href="#O"/><use transform="matrix(0.017777777777777778,0,0,0.017777777777777778,59.35999999999999,0)" xlink:href="#ab"/><use transform="matrix(0.017777777777777778,0,0,0.017777777777777778,70.22222222222221,0)" xlink:href="#ar"/></g><g id="r"><use transform="matrix(0.017777777777777778,0,0,0.017777777777777778,0,0)" xlink:href="#ai"/><use transform="matrix(0.017777777777777778,0,0,0.017777777777777778,12.835555555555555,0)" xlink:href="#P"/><use transform="matrix(0.017777777777777778,0,0,0.017777777777777778,19.84,0)" xlink:href="#Q"/><use transform="matrix(0.017777777777777778,0,0,0.017777777777777778,29.724444444444444,0)" xlink:href="#O"/><use transform="matrix(0.017777777777777778,0,0,0.017777777777777778,40.586666666666666,0)" xlink:href="#U"/><use transform="matrix(0.017777777777777778,0,0,0.017777777777777778,50.471111111111114,0)" xlink:href="#V"/></g><g id="s"><use transform="matrix(0.017777777777777778,0,0,0.017777777777777778,0,0)" xlink:href="#ae"/><use transform="matrix(0.017777777777777778,0,0,0.017777777777777778,14.80888888888889,0)" xlink:href="#ah"/><use transform="matrix(0.017777777777777778,0,0,0.017777777777777778,19.75111111111111,0)" xlink:href="#ar"/><use transform="matrix(0.017777777777777778,0,0,0.017777777777777778,29.635555555555555,0)" xlink:href="#ap"/><use transform="matrix(0.017777777777777778,0,0,0.017777777777777778,40.49777777777778,0)" xlink:href="#P"/><use transform="matrix(0.017777777777777778,0,0,0.017777777777777778,47.50222222222222,0)" xlink:href="#N"/><use transform="matrix(0.017777777777777778,0,0,0.017777777777777778,57.38666666666666,0)" xlink:href="#ab"/><use transform="matrix(0.017777777777777778,0,0,0.017777777777777778,68.2488888888889,0)" xlink:href="#ah"/><use transform="matrix(0.017777777777777778,0,0,0.017777777777777778,73.19111111111113,0)" xlink:href="#U"/><use transform="matrix(0.017777777777777778,0,0,0.017777777777777778,83.07555555555557,0)" xlink:href="#R"/><use transform="matrix(0.017777777777777778,0,0,0.017777777777777778,88.99555555555557,0)" xlink:href="#ah"/><use transform="matrix(0.017777777777777778,0,0,0.017777777777777778,93.9377777777778,0)" xlink:href="#S"/><use transform="matrix(0.017777777777777778,0,0,0.017777777777777778,104.80000000000001,0)" xlink:href="#O"/></g><path fill="#333" d="M207 0H67v-729h140V0" id="as"/><path fill="#333" d="M541 0H401v-71C361-18 312 9 239 9 124 9 58-59 58-178v-362h140v333c0 65 30 97 90 97 68 0 113-42 113-106v-324h140V0" id="at"/><g id="t"><use transform="matrix(0.017777777777777778,0,0,0.017777777777777778,0,0)" xlink:href="#an"/><use transform="matrix(0.017777777777777778,0,0,0.017777777777777778,5.831111111111111,0)" xlink:href="#as"/><use transform="matrix(0.017777777777777778,0,0,0.017777777777777778,10.773333333333333,0)" xlink:href="#at"/><use transform="matrix(0.017777777777777778,0,0,0.017777777777777778,21.635555555555555,0)" xlink:href="#ar"/><use transform="matrix(0.017777777777777778,0,0,0.017777777777777778,31.52,0)" xlink:href="#V"/><use transform="matrix(0.017777777777777778,0,0,0.017777777777777778,42.382222222222225,0)" xlink:href="#al"/></g><g id="u"><use transform="matrix(0.017777777777777778,0,0,0.017777777777777778,0,0)" xlink:href="#O"/><use transform="matrix(0.017777777777777778,0,0,0.017777777777777778,10.862222222222222,0)" xlink:href="#N"/><use transform="matrix(0.017777777777777778,0,0,0.017777777777777778,20.657777777777778,0)" xlink:href="#aq"/></g><g id="v"><use transform="matrix(0.017777777777777778,0,0,0.017777777777777778,0,0)" xlink:href="#R"/><use transform="matrix(0.017777777777777778,0,0,0.017777777777777778,6.0088888888888885,0)" xlink:href="#Q"/><use transform="matrix(0.017777777777777778,0,0,0.017777777777777778,15.893333333333333,0)" xlink:href="#P"/><use transform="matrix(0.017777777777777778,0,0,0.017777777777777778,22.808888888888887,0)" xlink:href="#am"/><use transform="matrix(0.017777777777777778,0,0,0.017777777777777778,33.84888888888889,0)" xlink:href="#N"/><use transform="matrix(0.017777777777777778,0,0,0.017777777777777778,43.644444444444446,0)" xlink:href="#R"/></g><g id="w"><use transform="matrix(0.017777777777777778,0,0,0.017777777777777778,0,0)" xlink:href="#X"/><use transform="matrix(0.017777777777777778,0,0,0.017777777777777778,4.942222222222222,0)" xlink:href="#Y"/></g><path fill="#333" d="M548 0H384L255-238l-56 61V0H59v-729h140v399l177-210h159L351-336" id="au"/><g id="x"><use transform="matrix(0.017777777777777778,0,0,0.017777777777777778,0,0)" xlink:href="#ai"/><use transform="matrix(0.017777777777777778,0,0,0.017777777777777778,12.835555555555555,0)" xlink:href="#as"/><use transform="matrix(0.017777777777777778,0,0,0.017777777777777778,17.77777777777778,0)" xlink:href="#S"/><use transform="matrix(0.017777777777777778,0,0,0.017777777777777778,28.64,0)" xlink:href="#U"/><use transform="matrix(0.017777777777777778,0,0,0.017777777777777778,38.61333333333334,0)" xlink:href="#au"/></g><g id="y"><use transform="matrix(0.017777777777777778,0,0,0.017777777777777778,0,0)" xlink:href="#S"/><use transform="matrix(0.017777777777777778,0,0,0.017777777777777778,10.862222222222222,0)" xlink:href="#O"/></g><g id="z"><use transform="matrix(0.017777777777777778,0,0,0.017777777777777778,0,0)" xlink:href="#af"/><use transform="matrix(0.017777777777777778,0,0,0.017777777777777778,15.804444444444444,0)" xlink:href="#ah"/><use transform="matrix(0.017777777777777778,0,0,0.017777777777777778,20.746666666666666,0)" xlink:href="#ar"/><use transform="matrix(0.017777777777777778,0,0,0.017777777777777778,30.63111111111111,0)" xlink:href="#ar"/></g><g id="A"><use transform="matrix(0.017777777777777778,0,0,0.017777777777777778,0,0)" xlink:href="#aa"/><use transform="matrix(0.017777777777777778,0,0,0.017777777777777778,12.835555555555555,0)" xlink:href="#Y"/></g><path fill="#333" d="M624 0H79v-729h527v125H229v165h349v125H229v189h395V0" id="av"/><path fill="#333" d="M535 0H367l-91-168L184 0H16l180-272L20-540h168l88 163 87-163h168L355-272" id="aw"/><g id="B"><use transform="matrix(0.024444444444444442,0,0,0.024444444444444442,0,0)" xlink:href="#av"/><use transform="matrix(0.024444444444444442,0,0,0.024444444444444442,16.304444444444442,0)" xlink:href="#aw"/><use transform="matrix(0.024444444444444442,0,0,0.024444444444444442,29.528888888888886,0)" xlink:href="#N"/><use transform="matrix(0.024444444444444442,0,0,0.024444444444444442,43.12,0)" xlink:href="#U"/><use transform="matrix(0.024444444444444442,0,0,0.024444444444444442,56.71111111111111,0)" xlink:href="#at"/><use transform="matrix(0.024444444444444442,0,0,0.024444444444444442,71.64666666666666,0)" xlink:href="#R"/><use transform="matrix(0.024444444444444442,0,0,0.024444444444444442,79.66444444444444,0)" xlink:href="#N"/></g><path fill="#333" d="M661 0H511L218-504V0H68v-729h154l289 496v-496h150V0" id="ax"/><path fill="#333" d="M598-604H385V0H235v-604H14v-125h584v125" id="ay"/><path fill="#333" d="M298-207H26v-135h272v135" id="az"/><path fill="#333" d="M579 0H80v-729h150v604h349V0" id="aA"/><g id="C"><use transform="matrix(0.022222222222222223,0,0,0.022222222222222223,0,0)" xlink:href="#X"/><use transform="matrix(0.022222222222222223,0,0,0.022222222222222223,6.177777777777778,0)" xlink:href="#ax"/><use transform="matrix(0.022222222222222223,0,0,0.022222222222222223,22.22222222222222,0)" xlink:href="#ay"/><use transform="matrix(0.022222222222222223,0,0,0.022222222222222223,34.68888888888889,0)" xlink:href="#az"/><use transform="matrix(0.022222222222222223,0,0,0.022222222222222223,42.08888888888889,0)" xlink:href="#ao"/><use transform="matrix(0.022222222222222223,0,0,0.022222222222222223,58.13333333333333,0)" xlink:href="#aA"/><use transform="matrix(0.022222222222222223,0,0,0.022222222222222223,71.15555555555555,0)" xlink:href="#aj"/></g><path fill="#333" d="M291 212h-55C136 81 73-101 73-259c0-157 63-339 163-470h55c-182 291-181 650 0 941" id="aB"/><path fill="#333" d="M653 0H549l-75-219H193L116 0H17l260-729h120zM448-297L336-629 216-297h232" id="aC"/><path fill="#333" d="M495 0h-74v-77c-45 65-95 92-167 92C113 15 26-90 26-267c0-167 89-272 225-272 70 0 126 28 161 81v-271h83V0zm-83-260c0-121-57-201-147-201-91 0-152 77-152 199S174-63 266-63c88 0 146-76 146-197" id="aD"/><path fill="#333" d="M321-451c-129 2-168 61-168 179V0H70v-524h76v95c59-88 90-119 175-107v85" id="aE"/><path fill="#333" d="M513-238H127c2 120 67 176 154 176 67 0 114-28 137-97h84C481-53 398 15 278 15 131 15 40-87 40-259s94-280 240-280c156 0 245 109 233 301zm-90-68c5-85-61-156-144-156-84 0-143 63-150 156h294" id="aF"/><path fill="#333" d="M459-147c0 101-84 162-216 162C106 15 38-39 34-160h88c11 80 53 98 128 98 73 0 122-29 122-78 0-63-103-74-159-88C89-260 47-297 47-379c0-97 79-160 201-160 121 0 189 58 190 161h-88c-2-55-38-84-105-84-68 0-111 31-111 79 0 37 29 59 97 75l80 19c104 25 148 64 148 142" id="aG"/><g id="D"><use transform="matrix(0.01555555555555555,0,0,0.01555555555555555,0,0)" xlink:href="#aB"/><use transform="matrix(0.01555555555555555,0,0,0.01555555555555555,5.179999999999998,0)" xlink:href="#aC"/><use transform="matrix(0.01555555555555555,0,0,0.01555555555555555,15.399999999999995,0)" xlink:href="#aD"/><use transform="matrix(0.01555555555555555,0,0,0.01555555555555555,24.048888888888882,0)" xlink:href="#aD"/><use transform="matrix(0.01555555555555555,0,0,0.01555555555555555,32.697777777777766,0)" xlink:href="#aE"/><use transform="matrix(0.01555555555555555,0,0,0.01555555555555555,37.72222222222221,0)" xlink:href="#aF"/><use transform="matrix(0.01555555555555555,0,0,0.01555555555555555,46.37111111111109,0)" xlink:href="#aG"/><use transform="matrix(0.01555555555555555,0,0,0.01555555555555555,54.14888888888886,0)" xlink:href="#aG"/></g><path fill="#333" d="M677-266C655-76 555 18 377 18 163 18 48-143 48-356s112-391 333-391c160 0 252 84 281 244h-95c-23-111-83-162-197-162-141 0-229 121-229 308 0 182 92 293 237 293 123 0 181-64 203-202h96" id="aH"/><path fill="#333" d="M535-2c-69 24-126 0-143-60-46 49-111 77-178 77C108 15 42-41 42-136c0-64 31-111 92-136 32-13 50-16 168-32 77-11 87-22 87-80 0-50-42-78-117-78-78 0-116 29-123 93H65c5-121 83-170 210-170 129 0 197 50 197 143v292c-2 32 28 47 63 39v63zM389-181v-78c-28 13-46 17-134 29-89 13-126 37-126 92 0 57 38 80 103 80 81 0 157-48 157-123" id="aI"/><path fill="#333" d="M151 0H68v-729h83V0" id="aJ"/><path fill="#333" d="M477-180C467-60 388 15 263 15 121 15 31-88 31-257c0-174 92-282 233-282 117 0 197 63 207 191h-84c-10-73-54-114-124-114-91 0-145 74-145 205 0 124 55 195 147 195 71 0 114-34 128-118h84" id="aK"/><path fill="#333" d="M256-258c0 157-63 339-163 470H38c182-291 181-650 0-941h55c100 131 163 313 163 471" id="aL"/><g id="E"><use transform="matrix(0.01555555555555555,0,0,0.01555555555555555,0,0)" xlink:href="#aH"/><use transform="matrix(0.01555555555555555,0,0,0.01555555555555555,11.231111111111106,0)" xlink:href="#aI"/><use transform="matrix(0.01555555555555555,0,0,0.01555555555555555,19.879999999999992,0)" xlink:href="#aJ"/><use transform="matrix(0.01555555555555555,0,0,0.01555555555555555,23.333333333333325,0)" xlink:href="#aK"/><use transform="matrix(0.01555555555555555,0,0,0.01555555555555555,31.1111111111111,0)" xlink:href="#aL"/></g><g id="F"><use transform="matrix(0.022222222222222223,0,0,0.022222222222222223,0,0)" xlink:href="#X"/><use transform="matrix(0.022222222222222223,0,0,0.022222222222222223,6.177777777777778,0)" xlink:href="#ax"/><use transform="matrix(0.022222222222222223,0,0,0.022222222222222223,22.22222222222222,0)" xlink:href="#ay"/><use transform="matrix(0.022222222222222223,0,0,0.022222222222222223,34.68888888888889,0)" xlink:href="#az"/><use transform="matrix(0.022222222222222223,0,0,0.022222222222222223,42.08888888888889,0)" xlink:href="#ae"/><use transform="matrix(0.022222222222222223,0,0,0.022222222222222223,60.6,0)" xlink:href="#aj"/><use transform="matrix(0.022222222222222223,0,0,0.022222222222222223,76.64444444444445,0)" xlink:href="#aA"/></g><path fill="#333" d="M647-729L397 0H270L24-729h151l162 549 159-549h151" id="aM"/><g id="G"><use transform="matrix(0.022222222222222223,0,0,0.022222222222222223,0,0)" xlink:href="#X"/><use transform="matrix(0.022222222222222223,0,0,0.022222222222222223,6.177777777777778,0)" xlink:href="#ax"/><use transform="matrix(0.022222222222222223,0,0,0.022222222222222223,22.22222222222222,0)" xlink:href="#ay"/><use transform="matrix(0.022222222222222223,0,0,0.022222222222222223,34.68888888888889,0)" xlink:href="#az"/><use transform="matrix(0.022222222222222223,0,0,0.022222222222222223,42.08888888888889,0)" xlink:href="#aa"/><use transform="matrix(0.022222222222222223,0,0,0.022222222222222223,58.13333333333333,0)" xlink:href="#X"/><use transform="matrix(0.022222222222222223,0,0,0.022222222222222223,64.31111111111112,0)" xlink:href="#aM"/></g><g id="H"><use transform="matrix(0.022222222222222223,0,0,0.022222222222222223,0,0)" xlink:href="#T"/><use transform="matrix(0.022222222222222223,0,0,0.022222222222222223,13.577777777777778,0)" xlink:href="#K"/><use transform="matrix(0.022222222222222223,0,0,0.022222222222222223,28.400000000000002,0)" xlink:href="#aj"/><use transform="matrix(0.022222222222222223,0,0,0.022222222222222223,44.44444444444444,0)" xlink:href="#az"/><use transform="matrix(0.022222222222222223,0,0,0.022222222222222223,51.84444444444445,0)" xlink:href="#ao"/><use transform="matrix(0.022222222222222223,0,0,0.022222222222222223,67.88888888888889,0)" xlink:href="#aA"/><use transform="matrix(0.022222222222222223,0,0,0.022222222222222223,80.91111111111111,0)" xlink:href="#aj"/></g><path fill="#333" d="M378 0H238v-489H68v-93c122 0 195-43 217-127h93V0" id="aN"/><g id="I"><use transform="matrix(0.022222222222222223,0,0,0.022222222222222223,0,0)" xlink:href="#T"/><use transform="matrix(0.022222222222222223,0,0,0.022222222222222223,13.577777777777778,0)" xlink:href="#ae"/><use transform="matrix(0.022222222222222223,0,0,0.022222222222222223,32.08888888888889,0)" xlink:href="#ao"/><use transform="matrix(0.022222222222222223,0,0,0.022222222222222223,48.24444444444445,0)" xlink:href="#az"/><use transform="matrix(0.022222222222222223,0,0,0.022222222222222223,55.644444444444446,0)" xlink:href="#aN"/></g><g id="J"><use transform="matrix(0.022222222222222223,0,0,0.022222222222222223,0,0)" xlink:href="#T"/><use transform="matrix(0.022222222222222223,0,0,0.022222222222222223,13.577777777777778,0)" xlink:href="#ae"/><use transform="matrix(0.022222222222222223,0,0,0.022222222222222223,32.08888888888889,0)" xlink:href="#ao"/><use transform="matrix(0.022222222222222223,0,0,0.022222222222222223,48.24444444444445,0)" xlink:href="#az"/><use transform="matrix(0.022222222222222223,0,0,0.022222222222222223,55.644444444444446,0)" xlink:href="#ax"/></g></defs></g></svg>